# 3ds Max Wavefront OBJ Exporter v0.97b - (c)2007 guruware
# File Created: 10.05.2021 08:49:35

mtllib Cardboard.mtl

#
# object Box072
#

v  -17.4124 0.0000 17.4124
v  -17.4124 0.0000 -17.4124
v  17.4124 0.0000 -17.4124
v  17.4124 0.0000 17.4124
v  -17.4124 35.8876 17.4124
v  17.4124 35.8876 17.4124
v  17.4124 35.8876 -17.4124
v  -17.4124 35.8876 -17.4124
v  -17.4124 0.5314 17.9438
v  17.4124 0.5314 17.9438
v  17.4124 35.3562 17.9438
v  -17.4124 35.3562 17.9438
v  17.9438 0.5314 17.4124
v  17.9438 0.5314 -17.4124
v  17.9438 35.3562 -17.4124
v  17.9438 35.3562 17.4124
v  17.4124 0.5314 -17.9438
v  -17.4124 0.5314 -17.9438
v  -17.4124 35.3562 -17.9438
v  17.4124 35.3562 -17.9438
v  -17.9438 0.5314 -17.4124
v  -17.9438 0.5314 17.4124
v  -17.9438 35.3562 17.4124
v  -17.9438 35.3562 -17.4124
# 24 vertices

vn -0.3416 -0.8756 0.3416
vn -0.3416 -0.8756 -0.3416
vn 0.3416 -0.8756 -0.3416
vn 0.3416 -0.8756 0.3416
vn -0.3416 0.8756 0.3416
vn 0.3416 0.8756 0.3416
vn 0.3416 0.8756 -0.3416
vn -0.3416 0.8756 -0.3416
vn -0.3416 -0.3416 0.8756
vn 0.3416 -0.3416 0.8756
vn 0.3416 0.3416 0.8756
vn -0.3416 0.3416 0.8756
vn 0.8756 -0.3416 0.3416
vn 0.8756 -0.3416 -0.3416
vn 0.8756 0.3416 -0.3416
vn 0.8756 0.3416 0.3416
vn 0.3416 -0.3416 -0.8756
vn -0.3416 -0.3416 -0.8756
vn -0.3416 0.3416 -0.8756
vn 0.3416 0.3416 -0.8756
vn -0.8756 -0.3416 -0.3416
vn -0.8756 -0.3416 0.3416
vn -0.8756 0.3416 0.3416
vn -0.8756 0.3416 -0.3416
# 24 vertex normals

vt 0.9961 0.9863 0.0000
vt 0.6744 0.9863 0.0000
vt 0.6744 0.6645 0.0000
vt 0.9961 0.6645 0.0000
vt 0.3435 0.3331 0.0000
vt 0.6651 0.3331 0.0000
vt 0.6651 0.6547 0.0000
vt 0.3435 0.6547 0.0000
vt 0.9958 0.0061 0.0000
vt 0.9958 0.3257 0.0000
vt 0.6743 0.3257 0.0000
vt 0.6743 0.0061 0.0000
vt 0.9977 0.3331 0.0000
vt 0.9977 0.6547 0.0000
vt 0.6762 0.6547 0.0000
vt 0.6762 0.3331 0.0000
vt 0.6651 0.9837 0.0000
vt 0.3436 0.9837 0.0000
vt 0.3436 0.6621 0.0000
vt 0.6651 0.6621 0.0000
vt 0.0146 0.6546 0.0000
vt 0.0146 0.3331 0.0000
vt 0.3361 0.3331 0.0000
vt 0.3361 0.6546 0.0000
vt 1.0016 0.0054 0.0000
vt 0.9991 -0.0001 0.0000
vt 0.3417 0.9894 0.0000
vt 0.3377 0.9844 0.0000
vt 1.0012 0.6566 0.0000
vt 0.9953 0.6605 0.0000
vt 1.0016 0.3276 0.0000
vt 0.9965 0.3316 0.0000
vt 0.3420 0.3324 0.0000
vt 0.3393 0.3269 0.0000
vt 0.6685 0.3265 0.0000
vt 0.6710 0.3319 0.0000
vt 0.6672 0.6554 0.0000
vt 0.6706 0.6609 0.0000
vt 0.3428 0.6561 0.0000
vt 0.3374 0.6590 0.0000
vt 0.9961 0.9922 0.0000
vt 0.6744 0.9922 0.0000
vt 0.6684 0.9863 0.0000
vt 0.6684 0.6645 0.0000
vt 0.6744 0.6586 0.0000
vt 0.9961 0.6586 0.0000
vt 1.0020 0.6645 0.0000
vt 1.0020 0.9863 0.0000
vt 0.6684 0.3257 0.0000
vt 0.6684 0.0061 0.0000
vt 0.6743 0.0002 0.0000
vt 0.9958 0.0002 0.0000
vt 0.6711 0.6622 0.0000
vt 0.6712 0.9837 0.0000
vt 0.3361 0.6605 0.0000
vt 0.0146 0.6605 0.0000
# 56 texture coords

o Box072
g Box072
usemtl 06___Default
s 1
f 1/1/1 2/2/2 3/3/3 4/4/4 
f 5/5/5 6/6/6 7/7/7 8/8/8 
s 2
f 9/9/9 10/10/10 11/11/11 12/12/12 
s 4
f 13/13/13 14/14/14 15/15/15 16/16/16 
s 2
f 17/17/17 18/18/18 19/19/19 20/20/20 
s 4
f 21/21/21 22/22/22 23/23/23 24/24/24 
s 7
f 1/25/1 9/9/9 22/26/22 
f 2/27/2 21/28/21 18/18/18 
f 3/29/3 17/30/17 14/14/14 
f 4/31/4 13/32/13 10/10/10 
f 5/33/5 23/23/23 12/34/12 
f 6/35/6 11/11/11 16/36/16 
f 7/37/7 15/15/15 20/38/20 
f 8/39/8 19/19/19 24/40/24 
s 5
f 2/2/2 1/1/1 22/41/22 21/42/21 
s 3
f 3/3/3 2/2/2 18/43/18 17/44/17 
s 5
f 4/4/4 3/3/3 14/45/14 13/46/13 
s 3
f 1/1/1 4/4/4 10/47/10 9/48/9 
f 6/49/6 5/50/5 12/12/12 11/11/11 
s 5
f 7/7/7 6/6/6 16/16/16 15/15/15 
s 3
f 8/8/8 7/7/7 20/20/20 19/19/19 
s 5
f 5/5/5 8/8/8 24/24/24 23/23/23 
s 6
f 11/11/11 10/10/10 13/13/13 16/16/16 
f 9/9/9 12/12/12 23/51/23 22/52/22 
f 15/53/15 14/54/14 17/17/17 20/20/20 
f 19/55/19 18/56/18 21/21/21 24/24/24 
# 18 polygons - 8 triangles

