# Blender v3.2.0 OBJ File: ''
# www.blender.org
mtllib CeillingFan.mtl
o Ceiling_fan_Cylinder.023
v 0.554609 -0.033431 -0.554609
v 0.784335 -0.513087 0.000000
v 0.000000 -0.033431 0.784335
v -0.554608 -0.513087 0.554608
v -0.554608 -0.033431 0.554608
v -0.784335 -0.513087 0.000000
v -0.554608 -0.513088 -0.554608
v -0.554608 -0.033431 -0.554608
v 0.554609 -0.513088 -0.554609
v 0.784335 -0.033431 0.000000
v 0.554609 -0.513087 0.554608
v 0.554609 -0.033431 0.554608
v 0.000000 -0.513087 0.784335
v -0.784335 -0.033431 -0.000000
v 0.000000 -0.033431 -0.784335
v 0.000000 -0.513088 -0.784335
v 0.000000 -0.395976 -0.784335
v 0.000000 -0.150542 -0.784335
v 0.554609 -0.150542 -0.554609
v 0.554609 -0.395976 -0.554609
v 0.784335 -0.395976 0.000000
v 0.784335 -0.150542 0.000000
v 0.554609 -0.150542 0.554608
v 0.554609 -0.395976 0.554608
v 0.000000 -0.395976 0.784335
v 0.000000 -0.150542 0.784335
v -0.554608 -0.150542 0.554608
v -0.554608 -0.395976 0.554608
v -0.784335 -0.395976 0.000000
v -0.784335 -0.150542 0.000000
v -0.554608 -0.150542 -0.554608
v -0.554608 -0.395976 -0.554608
v 1.535058 -0.395977 -4.490293
v 1.535058 -0.150543 -4.490293
v 2.089666 -0.395977 -4.260567
v 2.089666 -0.150543 -4.260567
v 4.490293 -0.150542 1.535059
v 4.490293 -0.395976 1.535059
v 4.260566 -0.395976 2.089667
v 4.260566 -0.150542 2.089667
v -1.535059 -0.150541 4.490293
v -1.535059 -0.395976 4.490293
v -2.089668 -0.395976 4.260566
v -2.089668 -0.150541 4.260566
v -4.490293 -0.150542 -1.535058
v -4.490293 -0.395977 -1.535058
v -4.260566 -0.395977 -2.089666
v -4.260566 -0.150542 -2.089666
v 1.811361 -0.358045 -4.914906
v 1.811361 -0.188475 -4.914906
v 2.194538 -0.358045 -4.756189
v 2.194538 -0.188475 -4.756189
v 4.914906 -0.188474 1.811362
v 4.914906 -0.358044 1.811362
v 4.756189 -0.358044 2.194538
v 4.756189 -0.188474 2.194538
v -1.811362 -0.188474 4.914906
v -1.811362 -0.358043 4.914906
v -2.194539 -0.358043 4.756188
v -2.194539 -0.188474 4.756188
v -4.914906 -0.188475 -1.811360
v -4.914906 -0.358044 -1.811360
v -4.756188 -0.358044 -2.194537
v -4.756188 -0.188475 -2.194537
v -0.742096 -0.273259 0.554608
v -0.132574 -0.273259 -0.916909
v 0.916909 -0.273259 -0.132574
v 0.132574 -0.273259 0.916909
v -0.916908 -0.273259 0.132574
v 0.742096 -0.273259 -0.554609
v 0.554609 -0.273259 0.742096
v -0.554608 -0.273259 -0.742096
v 1.369174 -0.273260 -4.577666
v 2.268746 -0.273260 -4.205051
v 4.577666 -0.273259 1.369175
v 4.205051 -0.273259 2.268747
v -1.369175 -0.273258 4.577666
v -2.268748 -0.273258 4.205050
v -4.577666 -0.273259 -1.369174
v -4.205051 -0.273260 -2.268746
v 1.755845 -0.273260 -5.093986
v 2.360421 -0.273260 -4.843562
v 5.093987 -0.273259 1.755846
v 4.843562 -0.273259 2.360423
v -1.755847 -0.273258 5.093986
v -2.360423 -0.273258 4.843562
v -5.093986 -0.273259 -1.755845
v -4.843562 -0.273260 -2.360421
v -0.409787 -0.637898 0.409787
v -0.579527 -0.637898 0.000000
v -0.409787 -0.637898 -0.409787
v 0.409788 -0.637898 0.409787
v 0.000000 -0.637898 0.579527
v 0.000000 -0.637898 -0.579527
v 0.409788 -0.637898 -0.409787
v 0.579527 -0.637898 0.000000
v 0.000000 -0.014192 -0.107738
v 0.000000 0.900057 -0.107738
v 0.076183 -0.014192 -0.076182
v 0.076183 0.900057 -0.076183
v 0.107739 -0.014192 0.000000
v 0.107739 0.900057 -0.000000
v 0.076183 -0.014192 0.076182
v 0.076183 0.900057 0.076182
v 0.000000 -0.014192 0.107738
v 0.000000 0.900057 0.107738
v -0.076182 -0.014192 0.076182
v -0.076182 0.900057 0.076182
v -0.107738 -0.014192 -0.000000
v -0.107738 0.900057 -0.000000
v -0.076182 -0.014192 -0.076182
v -0.076182 0.900057 -0.076183
v 0.000000 -0.014192 -0.217345
v 0.153686 -0.014192 -0.153686
v 0.217345 -0.014192 0.000000
v 0.153686 -0.014192 0.153686
v 0.000000 -0.014192 0.217345
v -0.153686 -0.014192 0.153686
v -0.217345 -0.014192 -0.000000
v -0.153686 -0.014192 -0.153686
v 0.000000 -0.050457 -0.217345
v 0.153686 -0.050457 -0.153686
v 0.217345 -0.050457 0.000000
v 0.153686 -0.050457 0.153686
v 0.000000 -0.050457 0.217345
v -0.153686 -0.050457 0.153686
v -0.217345 -0.050457 0.000000
v -0.153686 -0.050457 -0.153686
v 0.338174 0.900057 -0.338174
v 0.000000 0.900057 -0.478250
v 0.478250 0.900057 -0.000000
v 0.338174 0.900057 0.338173
v 0.000000 0.900057 0.478250
v -0.338174 0.900057 0.338173
v -0.478250 0.900057 -0.000000
v -0.338174 0.900057 -0.338174
v 0.360550 0.981630 -0.360550
v 0.000000 0.981630 -0.509894
v 0.509894 0.981630 -0.000000
v 0.360550 0.981630 0.360549
v 0.000000 0.981630 0.509894
v -0.360549 0.981630 0.360549
v -0.509894 0.981630 -0.000000
v -0.360549 0.981630 -0.360550
v -0.509894 0.940844 -0.000000
v -0.360549 0.940844 -0.360550
v 0.000000 0.940844 0.509894
v -0.360549 0.940844 0.360549
v 0.509894 0.940844 -0.000000
v 0.360550 0.940844 0.360549
v 0.000000 0.940844 -0.509894
v 0.360550 0.940844 -0.360550
vt 0.650306 0.002171
vt 0.724694 0.002171
vt 0.724694 0.499244
vt 0.650306 0.499244
vt 0.439561 0.622966
vt 0.430721 0.644306
vt 0.378425 0.592010
vt 0.399766 0.583170
vt 0.099694 0.578828
vt 0.025306 0.578828
vt 0.025306 0.081755
vt 0.099694 0.081755
vt 0.775386 0.703287
vt 0.807351 0.684240
vt 0.807351 0.755429
vt 0.775386 0.757459
vt 0.974694 0.578828
vt 0.900305 0.578828
vt 0.900306 0.081755
vt 0.974694 0.081755
vt 0.707114 0.703287
vt 0.739079 0.684240
vt 0.739079 0.755429
vt 0.707114 0.757459
vt 0.430721 0.718264
vt 0.378425 0.770560
vt 0.304467 0.770560
vt 0.252171 0.718264
vt 0.252171 0.644306
vt 0.304467 0.592010
vt 0.378841 0.011062
vt 0.400306 0.002171
vt 0.400306 0.499244
vt 0.377171 0.501380
vt 0.399766 0.779399
vt 0.439561 0.739604
vt 0.142316 0.777567
vt 0.065593 0.777568
vt 0.075610 0.753384
vt 0.132299 0.753384
vt 0.589457 0.811656
vt 0.560595 0.790811
vt 0.574689 0.790811
vt 0.560595 0.718569
vt 0.574689 0.718569
vt 0.622660 0.811656
vt 0.593799 0.790811
vt 0.607892 0.790811
vt 0.593799 0.718569
vt 0.607892 0.718569
vt 0.775386 0.583170
vt 0.807351 0.608077
vt 0.791742 0.608077
vt 0.791742 0.684240
vt 0.743421 0.684240
vt 0.759030 0.684240
vt 0.743421 0.608077
vt 0.759030 0.608077
vt 0.707114 0.583170
vt 0.739079 0.608077
vt 0.723470 0.608077
vt 0.723470 0.684240
vt 0.675148 0.684240
vt 0.690757 0.684240
vt 0.675148 0.608077
vt 0.690757 0.608077
vt 0.247829 0.697103
vt 0.218967 0.676258
vt 0.233061 0.676258
vt 0.218967 0.604016
vt 0.233061 0.604016
vt 0.655864 0.811656
vt 0.627003 0.790811
vt 0.641096 0.790811
vt 0.627003 0.718569
vt 0.641096 0.718569
vt 0.247829 0.079619
vt 0.224694 0.081755
vt 0.213197 0.020041
vt 0.228045 0.002171
vt 0.252171 0.501380
vt 0.275306 0.499244
vt 0.286802 0.560959
vt 0.271955 0.578828
vt 0.997829 0.079619
vt 0.963197 0.020040
vt 0.978045 0.002171
vt 0.752171 0.501380
vt 0.775306 0.499244
vt 0.786803 0.560959
vt 0.771955 0.578828
vt 0.275306 0.002171
vt 0.349694 0.002171
vt 0.349694 0.499244
vt 0.621159 0.569937
vt 0.599694 0.578828
vt 0.599694 0.081755
vt 0.622829 0.079619
vt 0.224694 0.578828
vt 0.150306 0.578828
vt 0.150306 0.081755
vt 0.753841 0.011062
vt 0.775306 0.002171
vt 0.474694 0.002171
vt 0.474694 0.499244
vt 0.121159 0.569937
vt 0.122829 0.079619
vt 0.253841 0.011062
vt 0.996159 0.569937
vt 0.628841 0.011062
vt 0.627171 0.501380
vt 0.525306 0.578828
vt 0.525306 0.081755
vt 0.246159 0.569937
vt 0.849694 0.002171
vt 0.849694 0.499244
vt 0.911803 0.020041
vt 0.896955 0.002171
vt 0.646955 0.578828
vt 0.661803 0.560959
vt 0.713197 0.560959
vt 0.728045 0.578828
vt 0.161803 0.020041
vt 0.146955 0.002171
vt 0.396955 0.578828
vt 0.411803 0.560959
vt 0.463197 0.560959
vt 0.478045 0.578828
vt 0.536802 0.020041
vt 0.588197 0.020040
vt 0.036803 0.020041
vt 0.088197 0.020041
vt 0.603045 0.002171
vt 0.103045 0.002171
vt 0.838197 0.560959
vt 0.338197 0.560959
vt 0.372829 0.501380
vt 0.353045 0.578828
vt 0.872829 0.501380
vt 0.853045 0.578828
vt 0.127171 0.079619
vt 0.877171 0.079619
vt 0.021955 0.002171
vt 0.521955 0.002171
vt 0.003841 0.569937
vt 0.002171 0.079619
vt 0.871159 0.011062
vt 0.503841 0.569937
vt 0.502171 0.079619
vt 0.496159 0.011062
vt 0.497829 0.501380
vt 0.128841 0.569937
vt 0.746159 0.011062
vt 0.747829 0.501380
vt 0.878841 0.569937
vt 0.247829 0.583170
vt 0.655864 0.697724
vt 0.589457 0.697724
vt 0.622660 0.697724
vt 0.043455 0.786738
vt 0.002171 0.745454
vt 0.011341 0.723316
vt 0.371159 0.011062
vt 0.675148 0.755429
vt 0.743421 0.755429
vt 0.011341 0.646592
vt 0.002171 0.624454
vt 0.043454 0.583170
vt 0.065593 0.592340
vt 0.035525 0.713299
vt 0.035525 0.656609
vt 0.075610 0.616524
vt 0.132299 0.616524
vt 0.172385 0.656609
vt 0.172385 0.713299
vt 0.196568 0.646592
vt 0.196568 0.723316
vt 0.142316 0.592340
vt 0.451654 0.821393
vt 0.451654 0.699863
vt 0.462615 0.699863
vt 0.462615 0.821393
vt 0.470366 0.699863
vt 0.470366 0.821393
vt 0.516793 0.699863
vt 0.516793 0.813475
vt 0.507039 0.813475
vt 0.507039 0.699863
vt 0.497922 0.813475
vt 0.497922 0.699863
vt 0.474708 0.813475
vt 0.474708 0.699863
vt 0.484462 0.699863
vt 0.484462 0.813475
vt 0.493579 0.699863
vt 0.493580 0.813475
vt 0.625953 0.631534
vt 0.618913 0.624495
vt 0.636031 0.583170
vt 0.667277 0.614417
vt 0.204792 0.692192
vt 0.204792 0.583170
vt 0.214625 0.583170
vt 0.214625 0.692192
vt 0.443903 0.821393
vt 0.443903 0.699863
vt 0.704010 0.797615
vt 0.710963 0.790662
vt 0.723038 0.795664
vt 0.709012 0.809691
vt 0.242956 0.716627
vt 0.242956 0.701445
vt 0.247637 0.701445
vt 0.247637 0.716627
vt 0.704010 0.773876
vt 0.694177 0.773876
vt 0.689175 0.761801
vt 0.709012 0.761801
vt 0.710963 0.780829
vt 0.723038 0.775827
vt 0.687224 0.780829
vt 0.675148 0.775827
vt 0.694177 0.797615
vt 0.689175 0.809691
vt 0.687224 0.790662
vt 0.675148 0.795664
vt 0.743421 0.795664
vt 0.743421 0.775827
vt 0.757448 0.761801
vt 0.777284 0.761801
vt 0.791311 0.775827
vt 0.791311 0.795664
vt 0.777284 0.809691
vt 0.757448 0.809691
vt 0.555646 0.719540
vt 0.555646 0.737933
vt 0.551140 0.737933
vt 0.551140 0.719540
vt 0.660206 0.716116
vt 0.660206 0.697724
vt 0.664713 0.697724
vt 0.664713 0.716116
vt 0.233934 0.716627
vt 0.233934 0.701445
vt 0.238614 0.701445
vt 0.238614 0.716627
vt 0.242956 0.738098
vt 0.247637 0.738098
vt 0.555646 0.699863
vt 0.551140 0.699863
vt 0.660206 0.735794
vt 0.664713 0.735794
vt 0.233934 0.738098
vt 0.238614 0.738098
vt 0.224279 0.752272
vt 0.224279 0.701445
vt 0.229591 0.701445
vt 0.229591 0.752272
vt 0.608959 0.648528
vt 0.618913 0.648528
vt 0.636031 0.689852
vt 0.591842 0.689852
vt 0.608959 0.624495
vt 0.601920 0.631534
vt 0.560595 0.614417
vt 0.591842 0.583170
vt 0.625953 0.641489
vt 0.667277 0.658606
vt 0.601920 0.641489
vt 0.560595 0.658606
vt 0.556253 0.616077
vt 0.556253 0.662614
vt 0.523347 0.695521
vt 0.476810 0.695521
vt 0.443903 0.662614
vt 0.443903 0.616077
vt 0.476810 0.583170
vt 0.523347 0.583170
vt 0.209277 0.745245
vt 0.209277 0.696534
vt 0.214625 0.696534
vt 0.214625 0.745245
vt 0.526483 0.748573
vt 0.526483 0.699863
vt 0.531831 0.699863
vt 0.531831 0.748574
vt 0.541486 0.750690
vt 0.541486 0.699863
vt 0.546798 0.699863
vt 0.546798 0.750690
vt 0.224279 0.788212
vt 0.229591 0.788212
vt 0.209277 0.790775
vt 0.214625 0.790775
vt 0.526483 0.794103
vt 0.531831 0.794103
vt 0.541486 0.786630
vt 0.546798 0.786630
vt 0.637492 0.693381
vt 0.590380 0.693381
vt 0.521135 0.790940
vt 0.521135 0.748237
vt 0.203929 0.787612
vt 0.203929 0.744908
vt 0.670806 0.612955
vt 0.670806 0.660068
vt 0.536174 0.749112
vt 0.536174 0.701440
vt 0.521135 0.702549
vt 0.203929 0.699220
vt 0.218967 0.750695
vt 0.218967 0.703022
vn -0.0000 1.0000 -0.0000
vn 0.7490 0.5855 -0.3102
vn 0.0000 -1.0000 0.0000
vn 0.3102 0.5855 0.7490
vn -0.7490 0.5855 0.3102
vn -0.2148 0.8261 0.5210
vn -0.3102 0.5855 -0.7490
vn -0.5087 -0.8348 -0.2107
vn 0.7071 0.0000 -0.7071
vn 0.3827 0.0000 -0.9239
vn 0.0000 0.0000 -1.0000
vn 0.7071 0.0000 0.7071
vn 0.9239 -0.0000 0.3827
vn 1.0000 0.0000 0.0000
vn -0.7071 0.0000 0.7071
vn -0.3827 0.0000 0.9239
vn -0.0000 0.0000 1.0000
vn -0.7071 0.0000 -0.7071
vn -0.9239 0.0000 -0.3827
vn -1.0000 0.0000 0.0000
vn 0.4101 0.8528 0.3233
vn 0.0614 -0.8528 -0.5186
vn -0.4101 0.8528 -0.3233
vn -0.0614 -0.8528 0.5186
vn 0.5203 -0.8261 0.2165
vn -0.2165 -0.8261 0.5203
vn -0.5203 -0.8261 -0.2165
vn 0.2165 -0.8261 -0.5203
vn -0.5210 0.8261 -0.2148
vn 0.2148 0.8261 -0.5210
vn 0.5210 0.8261 0.2148
vn 0.1940 0.8620 -0.4683
vn 0.4683 0.8620 0.1940
vn -0.1940 0.8620 0.4683
vn -0.4683 0.8620 -0.1940
vn 0.0291 -0.9971 -0.0702
vn -0.0291 -0.9971 0.0702
vn 0.0291 0.9971 -0.0702
vn -0.0291 0.9971 0.0702
vn 0.5186 -0.8528 0.0614
vn -0.5186 -0.8528 -0.0614
vn 0.3233 0.8528 -0.4101
vn -0.3233 0.8528 0.4101
vn 0.0702 -0.9971 0.0291
vn -0.0702 -0.9971 -0.0291
vn 0.0702 0.9971 0.0291
vn -0.0702 0.9971 -0.0291
vn -0.3233 -0.8528 0.4101
vn 0.3233 -0.8528 -0.4101
vn -0.5186 0.8528 -0.0614
vn 0.5186 0.8528 0.0614
vn -0.4683 -0.8620 -0.1940
vn -0.1940 -0.8620 0.4683
vn 0.4683 -0.8620 0.1940
vn 0.1940 -0.8620 -0.4683
vn 0.5210 -0.8261 0.2148
vn 0.2148 -0.8261 -0.5210
vn -0.5210 -0.8261 -0.2148
vn 0.2165 0.8261 -0.5203
vn -0.5203 0.8261 -0.2165
vn -0.2165 0.8261 0.5203
vn 0.5203 0.8261 0.2165
vn -0.0614 0.8528 0.5186
vn -0.4101 -0.8528 -0.3233
vn 0.0614 0.8528 -0.5186
vn 0.4101 -0.8528 0.3233
vn -0.3102 -0.5855 -0.7490
vn -0.2148 -0.8261 0.5210
vn -0.7490 -0.5855 0.3102
vn 0.3102 -0.5855 0.7490
vn 0.7490 -0.5855 -0.3102
vn -0.2107 -0.8348 -0.5087
vn 0.5087 -0.8348 -0.2107
vn 0.2107 -0.8348 -0.5087
vn -0.2107 -0.8348 0.5087
vn 0.2107 -0.8348 0.5087
vn -0.5087 -0.8348 0.2107
vn 0.5087 -0.8348 0.2107
vn 0.9239 -0.0000 -0.3827
vn 0.3827 0.0000 0.9239
vn -0.9239 0.0000 0.3827
vn -0.3827 -0.0000 -0.9239
vn 0.7509 -0.5826 -0.3110
vn 0.3110 -0.5826 0.7509
vn -0.7509 -0.5826 0.3110
vn -0.3110 -0.5826 -0.7509
vn 0.3110 -0.5826 -0.7509
vn 0.7509 -0.5826 0.3110
vn -0.3110 -0.5826 0.7509
vn -0.7509 -0.5826 -0.3110
usemtl Grey_2
s 1
f 22/1/1 23/2/1 40/3/1 37/4/1
f 70/5/2 1/6/2 10/7/2 67/8/2
f 28/9/3 25/10/3 42/11/3 43/12/3
f 71/13/4 12/14/4 3/15/4 68/16/4
f 18/17/1 19/18/1 36/19/1 34/20/1
f 65/21/5 5/22/5 14/23/5 69/24/5
f 1/6/1 15/25/1 8/26/1 14/27/1 5/28/1 3/29/1 12/30/1 10/7/1
f 69/31/6 30/32/6 45/33/6 79/34/6
f 72/35/7 8/26/7 15/25/7 66/36/7
f 6/37/8 7/38/8 91/39/8 90/40/8
f 66/41/9 15/42/9 18/43/9
f 15/42/10 1/44/10 19/45/10 18/43/10
f 70/46/11 9/47/11 20/48/11
f 9/47/10 16/49/10 17/50/10 20/48/10
f 67/51/12 10/52/12 22/53/12
f 10/52/13 12/14/13 23/54/13 22/53/13
f 71/13/14 11/55/14 24/56/14
f 11/55/13 2/57/13 21/58/13 24/56/13
f 68/59/15 3/60/15 26/61/15
f 3/60/16 5/22/16 27/62/16 26/61/16
f 65/21/17 4/63/17 28/64/17
f 4/63/16 13/65/16 25/66/16 28/64/16
f 69/67/18 14/68/18 30/69/18
f 14/68/19 8/70/19 31/71/19 30/69/19
f 72/72/20 7/73/20 32/74/20
f 7/73/19 6/75/19 29/76/19 32/74/19
f 77/77/21 41/78/21 57/79/21 85/80/21
f 80/81/22 47/82/22 63/83/22 88/84/22
f 73/85/23 34/20/23 50/86/23 81/87/23
f 76/88/24 39/89/24 55/90/24 84/91/24
f 32/92/3 29/93/3 46/94/3 47/82/3
f 70/95/25 20/96/25 35/97/25 74/98/25
f 26/99/1 27/100/1 44/101/1 41/78/1
f 71/102/26 24/103/26 39/89/26 76/88/26
f 30/32/1 31/104/1 48/105/1 45/33/1
f 65/106/27 28/9/27 43/12/27 78/107/27
f 72/108/28 32/92/28 47/82/28 80/81/28
f 66/109/29 18/17/29 34/20/29 73/85/29
f 67/110/30 22/1/30 37/4/30 75/111/30
f 20/96/3 17/112/3 33/113/3 35/97/3
f 68/114/31 26/99/31 41/78/31 77/77/31
f 24/103/3 21/115/3 38/116/3 39/89/3
f 81/87/32 50/86/32 52/117/32 82/118/32
f 83/119/33 53/120/33 56/121/33 84/122/33
f 85/80/34 57/79/34 60/123/34 86/124/34
f 87/125/35 61/126/35 64/127/35 88/128/35
f 35/97/36 33/113/36 49/129/36 51/130/36
f 43/12/37 42/11/37 58/131/37 59/132/37
f 34/20/38 36/19/38 52/117/38 50/86/38
f 41/78/39 44/101/39 60/123/39 57/79/39
f 74/98/40 35/97/40 51/130/40 82/133/40
f 78/107/41 43/12/41 59/132/41 86/134/41
f 75/111/42 37/4/42 53/120/42 83/119/42
f 79/34/43 45/33/43 61/126/43 87/125/43
f 39/89/44 38/116/44 54/135/44 55/90/44
f 47/82/45 46/94/45 62/136/45 63/83/45
f 37/4/46 40/3/46 56/121/46 53/120/46
f 45/33/47 48/105/47 64/127/47 61/126/47
f 46/94/48 79/137/48 87/138/48 62/136/48
f 38/116/49 75/139/49 83/140/49 54/135/49
f 44/101/50 78/141/50 86/124/50 60/123/50
f 36/19/51 74/142/51 82/118/51 52/117/51
f 62/136/52 87/138/52 88/84/52 63/83/52
f 58/131/53 85/143/53 86/134/53 59/132/53
f 54/135/54 83/140/54 84/91/54 55/90/54
f 49/129/55 81/144/55 82/133/55 51/130/55
f 25/10/56 68/145/56 77/146/56 42/11/56
f 21/115/57 67/147/57 75/139/57 38/116/57
f 17/112/58 66/148/58 73/149/58 33/113/58
f 31/104/59 72/150/59 80/151/59 48/105/59
f 27/100/60 65/152/60 78/141/60 44/101/60
f 23/2/61 71/153/61 76/154/61 40/3/61
f 19/18/62 70/155/62 74/142/62 36/19/62
f 40/3/63 76/154/63 84/122/63 56/121/63
f 33/113/64 73/149/64 81/144/64 49/129/64
f 48/105/65 80/151/65 88/128/65 64/127/65
f 42/11/66 77/146/66 85/143/66 58/131/66
f 8/70/20 72/156/20 31/71/20
f 6/75/18 69/157/18 29/76/18
f 5/22/17 65/21/17 27/62/17
f 13/65/15 68/59/15 25/66/15
f 12/14/14 71/13/14 23/54/14
f 2/57/12 67/51/12 21/58/12
f 1/44/11 70/158/11 19/45/11
f 16/49/9 66/159/9 17/50/9
f 7/38/67 72/160/67 66/161/67 16/162/67
f 29/93/68 69/163/68 79/137/68 46/94/68
f 4/63/69 65/21/69 69/24/69 6/164/69
f 11/55/70 71/13/70 68/16/70 13/165/70
f 9/166/71 70/167/71 67/168/71 2/169/71
f 94/170/3 95/171/3 96/172/3 92/173/3 93/174/3 89/175/3 90/40/3 91/39/3
f 7/38/72 16/162/72 94/170/72 91/39/72
f 9/166/73 2/169/73 96/172/73 95/171/73
f 16/162/74 9/166/74 95/171/74 94/170/74
f 13/176/75 4/177/75 89/175/75 93/174/75
f 11/178/76 13/176/76 93/174/76 92/173/76
f 4/177/77 6/37/77 90/40/77 89/175/77
f 2/169/78 11/178/78 92/173/78 96/172/78
f 97/179/10 98/180/10 100/181/10 99/182/10
f 99/182/79 100/181/79 102/183/79 101/184/79
f 101/185/13 102/186/13 104/187/13 103/188/13
f 103/188/80 104/187/80 106/189/80 105/190/80
f 105/191/16 106/192/16 108/193/16 107/194/16
f 107/194/81 108/193/81 110/195/81 109/196/81
f 112/197/3 110/198/3 135/199/3 136/200/3
f 109/201/19 110/202/19 112/203/19 111/204/19
f 111/205/82 112/206/82 98/180/82 97/179/82
f 101/207/1 103/208/1 116/209/1 115/210/1
f 120/211/82 113/212/82 121/213/82 128/214/82
f 107/215/1 109/216/1 119/217/1 118/218/1
f 103/208/1 105/219/1 117/220/1 116/209/1
f 109/216/1 111/221/1 120/222/1 119/217/1
f 99/223/1 101/207/1 115/210/1 114/224/1
f 105/219/1 107/215/1 118/218/1 117/220/1
f 111/221/1 97/225/1 113/226/1 120/222/1
f 97/225/1 99/223/1 114/224/1 113/226/1
f 121/227/3 122/228/3 123/229/3 124/230/3 125/231/3 126/232/3 127/233/3 128/234/3
f 118/235/81 119/236/81 127/237/81 126/238/81
f 116/239/80 117/240/80 125/241/80 124/242/80
f 114/243/79 115/244/79 123/245/79 122/246/79
f 119/247/19 120/211/19 128/214/19 127/248/19
f 117/249/16 118/235/16 126/238/16 125/250/16
f 115/251/13 116/239/13 124/242/13 123/252/13
f 113/253/10 114/243/10 122/246/10 121/254/10
f 146/255/19 145/256/19 143/257/19 144/258/19
f 102/259/3 100/260/3 129/261/3 131/262/3
f 108/263/3 106/264/3 133/265/3 134/266/3
f 98/267/3 112/197/3 136/200/3 130/268/3
f 100/260/3 98/267/3 130/268/3 129/261/3
f 104/269/3 102/259/3 131/262/3 132/270/3
f 110/198/3 108/263/3 134/266/3 135/199/3
f 106/264/3 104/269/3 132/270/3 133/265/3
f 137/271/1 138/272/1 144/273/1 143/274/1 142/275/1 141/276/1 140/277/1 139/278/1
f 148/279/16 147/280/16 141/281/16 142/282/16
f 150/283/13 149/284/13 139/285/13 140/286/13
f 152/287/10 151/288/10 138/289/10 137/290/10
f 151/291/82 146/255/82 144/258/82 138/292/82
f 145/293/81 148/279/81 142/282/81 143/294/81
f 147/295/80 150/283/80 140/286/80 141/296/80
f 149/297/79 152/287/79 137/290/79 139/298/79
f 131/262/83 129/261/83 152/299/83 149/300/83
f 133/301/84 132/302/84 150/283/84 147/295/84
f 135/303/85 134/304/85 148/279/85 145/293/85
f 130/268/86 136/200/86 146/305/86 151/306/86
f 129/307/87 130/308/87 151/288/87 152/287/87
f 132/302/88 131/309/88 149/284/88 150/283/88
f 134/304/89 133/310/89 147/280/89 148/279/89
f 136/311/90 135/312/90 145/256/90 146/255/90
