# Blender v3.2.2 OBJ File: ''
# www.blender.org
mtllib Table2.mtl
o Table_A_Cube.025
v -4.094913 3.535851 1.731886
v -4.094913 3.582817 1.778851
v -4.141879 3.582817 1.731886
v -4.094913 3.933840 1.778851
v -4.094913 3.980806 1.731886
v -4.141879 3.933840 1.731886
v -4.094913 3.535851 -1.732418
v -4.141879 3.582816 -1.732418
v -4.094913 3.582816 -1.779384
v -4.094913 3.980805 -1.732418
v -4.094913 3.933840 -1.779384
v -4.141879 3.933840 -1.732418
v 4.104527 3.535851 1.731886
v 4.151492 3.582817 1.731886
v 4.104527 3.582817 1.778851
v 4.104527 3.980806 1.731886
v 4.104527 3.933840 1.778851
v 4.151492 3.933840 1.731886
v 4.104527 3.535851 -1.732418
v 4.104527 3.582816 -1.779384
v 4.151492 3.582816 -1.732418
v 4.104527 3.980805 -1.732418
v 4.151492 3.933840 -1.732418
v 4.104527 3.933840 -1.779384
v -4.003140 0.000676 1.628704
v -4.003140 0.017801 1.645828
v -4.020264 0.017801 1.628704
v -4.064200 3.553268 1.720100
v -4.064200 3.583605 1.689763
v -4.094536 3.553268 1.689763
v -4.003140 0.000676 1.470435
v -4.020264 0.017801 1.470435
v -4.003140 0.017801 1.453311
v -4.064200 3.583605 1.409375
v -4.064200 3.553268 1.379038
v -4.094536 3.553268 1.409375
v -3.844871 0.000676 1.628704
v -3.827747 0.017801 1.628704
v -3.844871 0.017801 1.645828
v -3.783811 3.583605 1.689763
v -3.783811 3.553268 1.720100
v -3.753475 3.553268 1.689763
v -3.844871 0.000676 1.470435
v -3.844871 0.017801 1.453311
v -3.827747 0.017801 1.470435
v -3.783811 3.583605 1.409375
v -3.753475 3.553268 1.409375
v -3.783811 3.553268 1.379038
v -3.988322 0.000676 -1.470301
v -3.988322 0.017800 -1.453177
v -4.005446 0.017800 -1.470301
v -4.049382 3.553267 -1.378905
v -4.049382 3.583604 -1.409242
v -4.079719 3.553267 -1.409242
v -3.988322 0.000676 -1.628570
v -4.005446 0.017800 -1.628570
v -3.988322 0.017800 -1.645694
v -4.049382 3.583604 -1.689630
v -4.049382 3.553267 -1.719967
v -4.079719 3.553267 -1.689630
v -3.830053 0.000676 -1.470301
v -3.812929 0.017800 -1.470301
v -3.830053 0.017800 -1.453177
v -3.768993 3.583604 -1.409242
v -3.768993 3.553267 -1.378905
v -3.738657 3.553267 -1.409242
v -3.830053 0.000676 -1.628570
v -3.830053 0.017800 -1.645694
v -3.812929 0.017800 -1.628570
v -3.768993 3.583604 -1.689630
v -3.738657 3.553267 -1.689630
v -3.768993 3.553267 -1.719967
v 3.827650 0.000676 1.628704
v 3.827650 0.017801 1.645828
v 3.810526 0.017801 1.628704
v 3.766590 3.553268 1.720100
v 3.766590 3.583605 1.689763
v 3.736254 3.553268 1.689763
v 3.827650 0.000676 1.470435
v 3.810526 0.017801 1.470435
v 3.827650 0.017801 1.453311
v 3.766590 3.583605 1.409375
v 3.766590 3.553268 1.379038
v 3.736254 3.553268 1.409375
v 3.985919 0.000676 1.628704
v 4.003043 0.017801 1.628704
v 3.985919 0.017801 1.645828
v 4.046979 3.583605 1.689763
v 4.046979 3.553268 1.720100
v 4.077315 3.553268 1.689763
v 3.985919 0.000676 1.470435
v 3.985919 0.017801 1.453311
v 4.003043 0.017801 1.470435
v 4.046979 3.583605 1.409375
v 4.077315 3.553268 1.409375
v 4.046979 3.553268 1.379038
v 3.842468 0.000676 -1.470301
v 3.842468 0.017800 -1.453177
v 3.825344 0.017800 -1.470301
v 3.781408 3.553267 -1.378905
v 3.781408 3.583604 -1.409242
v 3.751072 3.553267 -1.409242
v 3.842468 0.000676 -1.628570
v 3.825344 0.017800 -1.628570
v 3.842468 0.017800 -1.645694
v 3.781408 3.583604 -1.689630
v 3.781408 3.553267 -1.719967
v 3.751072 3.553267 -1.689630
v 4.000737 0.000676 -1.470301
v 4.017861 0.017800 -1.470301
v 4.000737 0.017800 -1.453177
v 4.061797 3.583604 -1.409242
v 4.061797 3.553267 -1.378905
v 4.092134 3.553267 -1.409242
v 4.000737 0.000676 -1.628570
v 4.000737 0.017800 -1.645694
v 4.017861 0.017800 -1.628570
v 4.061797 3.583604 -1.689630
v 4.092134 3.553267 -1.689630
v 4.061797 3.553267 -1.719967
vt 0.717333 0.743609
vt 0.685759 0.743609
vt 0.685760 0.005980
vt 0.717334 0.005980
vt 0.674496 0.257352
vt 0.637917 0.257033
vt 0.645670 0.001755
vt 0.682249 0.002074
vt 0.312233 0.005908
vt 0.312232 0.730927
vt 0.005908 0.730927
vt 0.005908 0.005908
vt 0.868742 0.263354
vt 0.832267 0.263275
vt 0.827304 0.008659
vt 0.863780 0.008737
vt 0.682249 0.868698
vt 0.645670 0.868379
vt 0.637857 0.263956
vt 0.674436 0.264275
vt 0.721629 0.005980
vt 0.717405 0.001755
vt 0.001755 0.730927
vt 0.005908 0.735080
vt 0.868742 0.005296
vt 0.863795 0.001834
vt 0.822506 0.005197
vt 0.827319 0.001755
vt 0.721629 0.743609
vt 0.717404 0.747834
vt 0.001756 0.005908
vt 0.005908 0.001755
vt 0.679435 0.260857
vt 0.633068 0.260453
vt 0.324038 0.729011
vt 0.629557 0.729011
vt 0.629557 0.733154
vt 0.324038 0.733154
vt 0.685831 0.001755
vt 0.312232 0.735080
vt 0.324038 0.005897
vt 0.319896 0.729011
vt 0.319896 0.005897
vt 0.316385 0.005908
vt 0.316385 0.730927
vt 0.629557 0.005897
vt 0.324038 0.001755
vt 0.629557 0.001755
vt 0.312233 0.001755
vt 0.685830 0.747834
vt 0.879756 0.595236
vt 0.885311 0.916928
vt 0.859804 0.916928
vt 0.865358 0.595236
vt 0.804995 0.003509
vt 0.794192 0.367049
vt 0.773823 0.366057
vt 0.793497 0.002948
vt 0.419530 0.739494
vt 0.419530 0.765649
vt 0.393375 0.765649
vt 0.393375 0.739494
vt 0.916083 0.268724
vt 0.916083 0.627935
vt 0.895938 0.627826
vt 0.904712 0.268663
vt 0.818996 0.003639
vt 0.818996 0.367279
vt 0.798603 0.367169
vt 0.807485 0.003576
vt 0.865358 0.593652
vt 0.863800 0.595209
vt 0.390545 0.765649
vt 0.393375 0.768478
vt 0.903530 0.266864
vt 0.902253 0.268596
vt 0.893677 0.630799
vt 0.891581 0.627708
vt 0.879756 0.593652
vt 0.881314 0.595209
vt 0.390545 0.739494
vt 0.393375 0.736664
vt 0.806288 0.001755
vt 0.796314 0.370179
vt 0.502098 0.752817
vt 0.516674 0.752817
vt 0.516674 0.754394
vt 0.502098 0.754394
vt 0.857044 0.916882
vt 0.419530 0.768478
vt 0.502098 0.738242
vt 0.500521 0.752817
vt 0.500521 0.738242
vt 0.422359 0.739494
vt 0.422359 0.765649
vt 0.516674 0.738242
vt 0.502098 0.736664
vt 0.516674 0.736664
vt 0.419530 0.736664
vt 0.888071 0.916882
vt 0.845219 0.268448
vt 0.850773 0.590141
vt 0.825266 0.590141
vt 0.830821 0.268448
vt 0.756312 0.003509
vt 0.745509 0.367050
vt 0.725140 0.366057
vt 0.744814 0.002948
vt 0.348880 0.739494
vt 0.348880 0.765648
vt 0.322726 0.765648
vt 0.322726 0.739494
vt 0.972107 0.268724
vt 0.972107 0.627935
vt 0.951962 0.627826
vt 0.960736 0.268663
vt 0.770312 0.003638
vt 0.770312 0.367280
vt 0.749919 0.367170
vt 0.758801 0.003576
vt 0.830821 0.266864
vt 0.829263 0.268422
vt 0.319896 0.765648
vt 0.322726 0.768478
vt 0.959554 0.266864
vt 0.958277 0.268596
vt 0.949701 0.630800
vt 0.947605 0.627708
vt 0.845219 0.266864
vt 0.846776 0.268422
vt 0.319896 0.739494
vt 0.322726 0.736664
vt 0.757605 0.001755
vt 0.747631 0.370180
vt 0.462772 0.752817
vt 0.477347 0.752817
vt 0.477347 0.754394
vt 0.462772 0.754394
vt 0.822506 0.590095
vt 0.348880 0.768478
vt 0.462772 0.738241
vt 0.461195 0.752817
vt 0.461195 0.738241
vt 0.351710 0.739494
vt 0.351710 0.765648
vt 0.477347 0.738241
vt 0.462772 0.736664
vt 0.477347 0.736664
vt 0.348880 0.736664
vt 0.853533 0.590095
vt 0.845219 0.595236
vt 0.850773 0.916928
vt 0.825266 0.916928
vt 0.830821 0.595236
vt 0.807485 0.740294
vt 0.798603 0.376701
vt 0.818996 0.376591
vt 0.818996 0.740231
vt 0.384205 0.739494
vt 0.384205 0.765649
vt 0.358051 0.765649
vt 0.358051 0.739494
vt 0.916083 0.636170
vt 0.916083 0.995380
vt 0.895938 0.995271
vt 0.904711 0.636109
vt 0.793498 0.740922
vt 0.773823 0.377814
vt 0.794192 0.376821
vt 0.804995 0.740361
vt 0.830821 0.593652
vt 0.829263 0.595209
vt 0.355221 0.765649
vt 0.358051 0.768478
vt 0.903530 0.634310
vt 0.902252 0.636042
vt 0.893677 0.998245
vt 0.891581 0.995153
vt 0.845219 0.593652
vt 0.846777 0.595209
vt 0.355221 0.739494
vt 0.358051 0.736664
vt 0.806288 0.742114
vt 0.796314 0.373691
vt 0.521762 0.752817
vt 0.536337 0.752817
vt 0.536337 0.754394
vt 0.521762 0.754394
vt 0.822506 0.916882
vt 0.384205 0.768478
vt 0.521762 0.738241
vt 0.520185 0.752817
vt 0.520185 0.738241
vt 0.387035 0.739494
vt 0.387035 0.765649
vt 0.536337 0.738241
vt 0.521762 0.736664
vt 0.536337 0.736664
vt 0.384205 0.736664
vt 0.853533 0.916882
vt 0.879756 0.268448
vt 0.885311 0.590140
vt 0.859803 0.590140
vt 0.865358 0.268448
vt 0.758801 0.740294
vt 0.749919 0.376701
vt 0.770312 0.376591
vt 0.770312 0.740232
vt 0.454854 0.739494
vt 0.454854 0.765649
vt 0.428700 0.765649
vt 0.428700 0.739494
vt 0.944095 0.268724
vt 0.944095 0.627935
vt 0.923950 0.627826
vt 0.932724 0.268663
vt 0.744814 0.740922
vt 0.725140 0.377814
vt 0.745509 0.376821
vt 0.756312 0.740361
vt 0.865358 0.266864
vt 0.863800 0.268422
vt 0.425870 0.765649
vt 0.428700 0.768478
vt 0.931542 0.266864
vt 0.930265 0.268596
vt 0.921690 0.630799
vt 0.919593 0.627708
vt 0.879756 0.266864
vt 0.881314 0.268422
vt 0.425870 0.739494
vt 0.428700 0.736664
vt 0.757605 0.742115
vt 0.747631 0.373691
vt 0.482435 0.752817
vt 0.497011 0.752817
vt 0.497011 0.754394
vt 0.482435 0.754394
vt 0.857044 0.590094
vt 0.454854 0.768478
vt 0.482435 0.738241
vt 0.480858 0.752817
vt 0.480858 0.738241
vt 0.457684 0.739494
vt 0.457684 0.765649
vt 0.497011 0.738241
vt 0.482435 0.736664
vt 0.497011 0.736664
vt 0.454854 0.736664
vt 0.888071 0.590094
vn 0.0000 0.0000 1.0000
vn 1.0000 0.0000 0.0000
vn 0.0000 1.0000 -0.0000
vn -1.0000 0.0000 0.0000
vn 0.0000 0.0000 -1.0000
vn -0.5774 -0.5773 0.5774
vn -0.5774 0.5773 0.5774
vn -0.5774 -0.5773 -0.5774
vn -0.5774 0.5773 -0.5774
vn 0.5774 -0.5773 0.5774
vn 0.5774 0.5773 0.5774
vn 0.5774 -0.5773 -0.5774
vn 0.5774 0.5773 -0.5774
vn -0.7071 -0.7071 0.0000
vn -0.7071 0.0000 0.7071
vn -0.7071 0.7071 -0.0000
vn -0.7071 0.0000 -0.7071
vn 0.0000 -0.7071 -0.7071
vn 0.0000 0.7071 -0.7071
vn 0.7071 0.0000 -0.7071
vn 0.7071 -0.7071 0.0000
vn 0.7071 0.7071 -0.0000
vn 0.7071 0.0000 0.7071
vn 0.0000 -0.7071 0.7071
vn 0.0000 0.7071 0.7071
vn 0.0000 -1.0000 0.0000
vn 0.0000 -0.0210 0.9998
vn 0.9998 -0.0210 0.0000
vn -0.9998 -0.0210 0.0000
vn 0.0000 -0.0210 -0.9998
vn -0.5774 -0.5774 0.5773
vn -0.5774 0.5773 0.5773
vn -0.5774 0.5774 -0.5773
vn 0.5774 -0.5774 0.5773
vn 0.5774 0.5774 0.5773
vn 0.5774 -0.5773 -0.5773
vn 0.5774 0.5774 -0.5773
vn -0.7069 -0.0271 0.7068
vn -0.7069 -0.0271 -0.7068
vn 0.7069 -0.0271 -0.7068
vn 0.7069 -0.0271 0.7068
vn -0.5774 0.5774 0.5773
vn -0.5773 -0.5774 -0.5773
vn 0.5774 -0.5774 -0.5773
vn -0.7068 -0.0271 0.7068
vn 0.7068 -0.0271 0.7068
vn -0.5774 -0.5773 0.5773
vn 0.5774 0.5773 0.5773
vn -0.5774 -0.5774 -0.5773
vn 0.5773 -0.5774 0.5774
vn 0.5773 -0.5774 -0.5773
usemtl Brown.001
s 1
f 15/1/1 17/2/1 4/3/1 2/4/1
f 21/5/2 23/6/2 18/7/2 14/8/2
f 22/9/3 10/10/3 5/11/3 16/12/3
f 3/13/4 6/14/4 12/15/4 8/16/4
f 9/17/5 11/18/5 24/19/5 20/20/5
f 1/21/6 2/4/6 3/22/6
f 4/23/7 5/11/7 6/24/7
f 7/25/8 8/16/8 9/26/8
f 10/27/9 11/28/9 12/15/9
f 13/29/10 14/30/10 15/1/10
f 16/12/11 17/31/11 18/32/11
f 19/33/12 20/20/12 21/5/12
f 22/34/13 23/6/13 24/19/13
f 7/35/14 1/36/14 3/37/14 8/38/14
f 2/4/15 4/3/15 6/39/15 3/22/15
f 5/11/16 10/10/16 12/40/16 6/24/16
f 11/28/17 9/26/17 8/16/17 12/15/17
f 19/41/18 7/35/18 9/42/18 20/43/18
f 10/10/19 22/9/19 24/44/19 11/45/19
f 23/6/20 21/5/20 20/20/20 24/19/20
f 13/46/21 19/41/21 21/47/21 14/48/21
f 22/9/22 16/12/22 18/32/22 23/49/22
f 17/2/23 15/1/23 14/30/23 18/50/23
f 1/21/24 13/29/24 15/1/24 2/4/24
f 16/12/25 5/11/25 4/23/25 17/31/25
f 7/35/26 19/41/26 13/46/26 1/36/26
f 39/51/27 41/52/27 28/53/27 26/54/27
f 45/55/28 47/56/28 42/57/28 38/58/28
f 46/59/3 34/60/3 29/61/3 40/62/3
f 27/63/29 30/64/29 36/65/29 32/66/29
f 33/67/30 35/68/30 48/69/30 44/70/30
f 25/71/31 26/54/31 27/72/31
f 28/73/32 29/61/32 30/74/32
f 31/75/8 32/66/8 33/76/8
f 34/77/33 35/78/33 36/65/33
f 37/79/34 38/80/34 39/51/34
f 40/62/35 41/81/35 42/82/35
f 43/83/36 44/70/36 45/55/36
f 46/84/37 47/56/37 48/69/37
f 31/85/14 25/86/14 27/87/14 32/88/14
f 26/54/38 28/53/38 30/89/38 27/72/38
f 29/61/16 34/60/16 36/90/16 30/74/16
f 35/78/39 33/76/39 32/66/39 36/65/39
f 43/91/18 31/85/18 33/92/18 44/93/18
f 34/60/19 46/59/19 48/94/19 35/95/19
f 47/56/40 45/55/40 44/70/40 48/69/40
f 37/96/21 43/91/21 45/97/21 38/98/21
f 46/59/22 40/62/22 42/82/22 47/99/22
f 41/52/41 39/51/41 38/80/41 42/100/41
f 25/71/24 37/79/24 39/51/24 26/54/24
f 40/62/25 29/61/25 28/73/25 41/81/25
f 31/85/26 43/91/26 37/96/26 25/86/26
f 63/101/27 65/102/27 52/103/27 50/104/27
f 69/105/28 71/106/28 66/107/28 62/108/28
f 70/109/3 58/110/3 53/111/3 64/112/3
f 51/113/29 54/114/29 60/115/29 56/116/29
f 57/117/30 59/118/30 72/119/30 68/120/30
f 49/121/6 50/104/6 51/122/6
f 52/123/42 53/111/42 54/124/42
f 55/125/43 56/116/43 57/126/43
f 58/127/33 59/128/33 60/115/33
f 61/129/10 62/130/10 63/101/10
f 64/112/35 65/131/35 66/132/35
f 67/133/44 68/120/44 69/105/44
f 70/134/37 71/106/37 72/119/37
f 55/135/14 49/136/14 51/137/14 56/138/14
f 50/104/45 52/103/45 54/139/45 51/122/45
f 53/111/16 58/110/16 60/140/16 54/124/16
f 59/128/39 57/126/39 56/116/39 60/115/39
f 67/141/18 55/135/18 57/142/18 68/143/18
f 58/110/19 70/109/19 72/144/19 59/145/19
f 71/106/40 69/105/40 68/120/40 72/119/40
f 61/146/21 67/141/21 69/147/21 62/148/21
f 70/109/22 64/112/22 66/132/22 71/149/22
f 65/102/46 63/101/46 62/130/46 66/150/46
f 49/121/24 61/129/24 63/101/24 50/104/24
f 64/112/25 53/111/25 52/123/25 65/131/25
f 55/135/26 67/141/26 61/146/26 49/136/26
f 87/151/27 89/152/27 76/153/27 74/154/27
f 93/155/28 95/156/28 90/157/28 86/158/28
f 94/159/3 82/160/3 77/161/3 88/162/3
f 75/163/29 78/164/29 84/165/29 80/166/29
f 81/167/30 83/168/30 96/169/30 92/170/30
f 73/171/47 74/154/47 75/172/47
f 76/173/32 77/161/32 78/174/32
f 79/175/8 80/166/8 81/176/8
f 82/177/33 83/178/33 84/165/33
f 85/179/34 86/180/34 87/151/34
f 88/162/48 89/181/48 90/182/48
f 91/183/12 92/170/12 93/155/12
f 94/184/37 95/156/37 96/169/37
f 79/185/14 73/186/14 75/187/14 80/188/14
f 74/154/38 76/153/38 78/189/38 75/172/38
f 77/161/16 82/160/16 84/190/16 78/174/16
f 83/178/39 81/176/39 80/166/39 84/165/39
f 91/191/18 79/185/18 81/192/18 92/193/18
f 82/160/19 94/159/19 96/194/19 83/195/19
f 95/156/40 93/155/40 92/170/40 96/169/40
f 85/196/21 91/191/21 93/197/21 86/198/21
f 94/159/22 88/162/22 90/182/22 95/199/22
f 89/152/41 87/151/41 86/180/41 90/200/41
f 73/171/24 85/179/24 87/151/24 74/154/24
f 88/162/25 77/161/25 76/173/25 89/181/25
f 79/185/26 91/191/26 85/196/26 73/186/26
f 111/201/27 113/202/27 100/203/27 98/204/27
f 117/205/28 119/206/28 114/207/28 110/208/28
f 118/209/3 106/210/3 101/211/3 112/212/3
f 99/213/29 102/214/29 108/215/29 104/216/29
f 105/217/30 107/218/30 120/219/30 116/220/30
f 97/221/6 98/204/6 99/222/6
f 100/223/42 101/211/42 102/224/42
f 103/225/49 104/216/49 105/226/49
f 106/227/33 107/228/33 108/215/33
f 109/229/50 110/230/50 111/201/50
f 112/212/35 113/231/35 114/232/35
f 115/233/51 116/220/51 117/205/51
f 118/234/37 119/206/37 120/219/37
f 103/235/14 97/236/14 99/237/14 104/238/14
f 98/204/45 100/203/45 102/239/45 99/222/45
f 101/211/16 106/210/16 108/240/16 102/224/16
f 107/228/39 105/226/39 104/216/39 108/215/39
f 115/241/18 103/235/18 105/242/18 116/243/18
f 106/210/19 118/209/19 120/244/19 107/245/19
f 119/206/40 117/205/40 116/220/40 120/219/40
f 109/246/21 115/241/21 117/247/21 110/248/21
f 118/209/22 112/212/22 114/232/22 119/249/22
f 113/202/46 111/201/46 110/230/46 114/250/46
f 97/221/24 109/229/24 111/201/24 98/204/24
f 112/212/25 101/211/25 100/223/25 113/231/25
f 103/235/26 115/241/26 109/246/26 97/236/26
