# Blender v3.2.0 OBJ File: ''
# www.blender.org
mtllib vent.mtl
o Vent_Cube.048
v -0.581289 -0.227354 0.015626
v -0.581289 0.227354 0.015626
v -0.637545 -0.283610 -0.112664
v -0.637545 0.283610 -0.112664
v 0.581289 -0.227354 0.015626
v 0.581289 0.227354 0.015626
v 0.637545 -0.283610 -0.112664
v 0.637545 0.283610 -0.112664
v -0.663656 -0.309722 -0.048519
v -0.663656 0.309722 -0.048519
v 0.663656 -0.309722 -0.048519
v 0.663656 0.309722 -0.048519
v -0.016423 0.227354 -0.003395
v 0.016423 0.227354 -0.003395
v 0.143932 -0.227354 -0.003395
v 0.111086 -0.227354 -0.003395
v 0.111086 0.227354 -0.003395
v 0.143932 0.227354 -0.003395
v 0.271441 -0.227354 -0.003395
v 0.238595 -0.227354 -0.003395
v 0.238595 0.227354 -0.003395
v 0.271441 0.227354 -0.003395
v 0.398950 -0.227354 -0.003395
v 0.366104 -0.227354 -0.003395
v 0.366104 0.227354 -0.003395
v 0.398950 0.227354 -0.003395
v 0.526459 -0.227354 -0.003395
v 0.493613 -0.227354 -0.003395
v 0.493613 0.227354 -0.003395
v 0.526459 0.227354 -0.003395
v -0.637545 -0.283610 0.015627
v -0.637545 0.283610 0.015626
v 0.637545 0.283610 0.015626
v 0.637545 -0.283610 0.015627
v -0.016423 -0.227354 -0.003395
v 0.016423 -0.227354 -0.003395
v -0.111086 0.227354 -0.003395
v -0.143932 0.227354 -0.003395
v -0.143932 -0.227354 -0.003395
v -0.111086 -0.227354 -0.003395
v -0.238595 0.227354 -0.003395
v -0.271441 0.227354 -0.003395
v -0.271441 -0.227354 -0.003395
v -0.238595 -0.227354 -0.003395
v -0.366104 0.227354 -0.003395
v -0.398950 0.227354 -0.003395
v -0.398950 -0.227354 -0.003395
v -0.366104 -0.227354 -0.003395
v -0.493613 0.227354 -0.003395
v -0.526459 0.227354 -0.003395
v -0.526459 -0.227354 -0.003395
v -0.493613 -0.227354 -0.003395
v -0.480191 -0.227354 0.015626
v -0.493613 -0.227354 0.002205
v -0.539880 -0.227354 0.015626
v -0.526459 -0.227354 0.002205
v -0.352682 -0.227354 0.015626
v -0.366104 -0.227354 0.002205
v -0.412371 -0.227354 0.015626
v -0.398950 -0.227354 0.002205
v -0.225173 -0.227354 0.015626
v -0.238595 -0.227354 0.002205
v -0.284862 -0.227354 0.015626
v -0.271441 -0.227354 0.002205
v -0.097664 -0.227354 0.015626
v -0.111086 -0.227354 0.002205
v -0.157353 -0.227354 0.015626
v -0.143932 -0.227354 0.002205
v 0.029845 -0.227354 0.015626
v 0.016423 -0.227354 0.002205
v -0.029845 -0.227354 0.015626
v -0.016423 -0.227354 0.002205
v 0.157353 -0.227354 0.015626
v 0.143932 -0.227354 0.002205
v 0.097664 -0.227354 0.015626
v 0.111086 -0.227354 0.002205
v 0.284862 -0.227354 0.015626
v 0.271441 -0.227354 0.002205
v 0.225173 -0.227354 0.015626
v 0.238595 -0.227354 0.002205
v 0.412371 -0.227354 0.015626
v 0.398950 -0.227354 0.002205
v 0.352682 -0.227354 0.015626
v 0.366104 -0.227354 0.002205
v 0.539880 -0.227354 0.015626
v 0.526459 -0.227354 0.002205
v 0.480191 -0.227354 0.015626
v 0.493613 -0.227354 0.002205
v 0.480191 0.227354 0.015626
v 0.493613 0.227354 0.002205
v 0.526459 0.227354 0.002205
v 0.539880 0.227354 0.015626
v 0.352682 0.227354 0.015626
v 0.366104 0.227354 0.002205
v 0.398950 0.227354 0.002205
v 0.412371 0.227354 0.015626
v 0.225173 0.227354 0.015626
v 0.238595 0.227354 0.002205
v 0.271441 0.227354 0.002205
v 0.284862 0.227354 0.015626
v 0.097664 0.227354 0.015626
v 0.111086 0.227354 0.002205
v 0.143932 0.227354 0.002205
v 0.157353 0.227354 0.015626
v -0.029845 0.227354 0.015626
v -0.016423 0.227354 0.002205
v 0.016423 0.227354 0.002205
v 0.029845 0.227354 0.015626
v -0.157353 0.227354 0.015626
v -0.143932 0.227354 0.002205
v -0.111086 0.227354 0.002205
v -0.097664 0.227354 0.015626
v -0.284862 0.227354 0.015626
v -0.271441 0.227354 0.002205
v -0.238595 0.227354 0.002205
v -0.225173 0.227354 0.015626
v -0.412371 0.227354 0.015626
v -0.398950 0.227354 0.002205
v -0.366104 0.227354 0.002205
v -0.352682 0.227354 0.015626
v -0.539880 0.227354 0.015626
v -0.526459 0.227354 0.002205
v -0.493613 0.227354 0.002205
v -0.480191 0.227354 0.015626
vt 0.871987 0.744236
vt 0.871987 0.375107
vt 0.910211 0.390667
vt 0.910211 0.728676
vt 0.871987 0.371122
vt 0.871987 0.001993
vt 0.910211 0.017553
vt 0.910211 0.355562
vt 0.438399 0.998007
vt 0.438399 0.737235
vt 0.441610 0.737235
vt 0.441610 0.998007
vt 0.833762 0.355562
vt 0.833762 0.017553
vt 0.833762 0.728676
vt 0.833762 0.390667
vt 0.672894 0.777384
vt 0.672894 0.017553
vt 0.711118 0.001993
vt 0.711118 0.792944
vt 0.753328 0.777384
vt 0.753328 0.017553
vt 0.791552 0.001993
vt 0.791552 0.792944
vt 0.829777 0.017553
vt 0.829777 0.777384
vt 0.749343 0.017553
vt 0.749343 0.777384
vt 0.515579 0.744932
vt 0.515579 0.763769
vt 0.512368 0.763769
vt 0.512368 0.744932
vt 0.993071 0.266751
vt 0.993071 0.527523
vt 0.989860 0.527523
vt 0.989860 0.266751
vt 0.398431 0.737235
vt 0.398431 0.998007
vt 0.395219 0.998007
vt 0.395219 0.737235
vt 0.384037 0.737235
vt 0.384037 0.998007
vt 0.380826 0.998007
vt 0.380826 0.737235
vt 0.405627 0.737235
vt 0.405627 0.998007
vt 0.402416 0.998007
vt 0.402416 0.737235
vt 0.412824 0.737235
vt 0.412824 0.998007
vt 0.409613 0.998007
vt 0.409613 0.737235
vt 0.434414 0.737235
vt 0.434414 0.998007
vt 0.431203 0.998007
vt 0.431202 0.737235
vt 0.427217 0.737235
vt 0.427217 0.998007
vt 0.424006 0.998007
vt 0.424006 0.737235
vt 0.560261 0.744932
vt 0.560261 0.763769
vt 0.557050 0.763769
vt 0.557050 0.744932
vt 0.668908 0.001993
vt 0.668908 0.733249
vt 0.343611 0.733249
vt 0.343611 0.001993
vt 0.035479 0.727492
vt 0.306139 0.727492
vt 0.339625 0.760978
vt 0.001993 0.760978
vt 0.306139 0.035479
vt 0.035479 0.035479
vt 0.001993 0.001993
vt 0.339625 0.001993
vt 0.985874 0.531508
vt 0.985874 0.792281
vt 0.982663 0.792281
vt 0.982663 0.531508
vt 0.933033 0.266750
vt 0.933033 0.527523
vt 0.914197 0.527523
vt 0.914197 0.266750
vt 0.646317 0.744932
vt 0.646317 0.763769
vt 0.643106 0.763769
vt 0.643106 0.744932
vt 0.982663 0.527523
vt 0.982663 0.266751
vt 0.985874 0.266751
vt 0.985874 0.527523
vt 0.035479 0.475149
vt 0.306139 0.475149
vt 0.306139 0.515518
vt 0.035479 0.515518
vt 0.306139 0.171554
vt 0.306139 0.136025
vt 0.306139 0.095656
vt 0.306139 0.060127
vt 0.306139 0.702844
vt 0.306139 0.667315
vt 0.306139 0.626946
vt 0.306139 0.591416
vt 0.306139 0.551047
vt 0.306139 0.439619
vt 0.306139 0.399250
vt 0.306139 0.363721
vt 0.306139 0.323352
vt 0.306139 0.287822
vt 0.306139 0.247453
vt 0.306139 0.211924
vt 0.034992 0.772661
vt 0.034992 0.791497
vt 0.031781 0.791497
vt 0.031781 0.772661
vt 0.993071 0.531508
vt 0.993071 0.792281
vt 0.989860 0.792281
vt 0.989860 0.531508
vt 0.005204 0.772661
vt 0.005204 0.791497
vt 0.001993 0.791497
vt 0.001993 0.772661
vt 0.020098 0.772661
vt 0.020098 0.791497
vt 0.016887 0.791497
vt 0.016887 0.772661
vt 0.035479 0.171555
vt 0.035479 0.211924
vt 0.391234 0.737235
vt 0.391234 0.998007
vt 0.388023 0.998007
vt 0.388023 0.737235
vt 0.955855 0.531508
vt 0.955855 0.792280
vt 0.937019 0.792280
vt 0.937019 0.531508
vt 0.978678 0.001993
vt 0.978678 0.262765
vt 0.959841 0.262765
vt 0.959841 0.001993
vt 0.362447 0.737235
vt 0.362447 0.998007
vt 0.343611 0.998007
vt 0.343611 0.737235
vt 0.978678 0.531508
vt 0.978678 0.792280
vt 0.959841 0.792280
vt 0.959841 0.531508
vt 0.937019 0.262765
vt 0.937019 0.001993
vt 0.955855 0.001993
vt 0.955855 0.262765
vt 0.955855 0.266750
vt 0.955855 0.527523
vt 0.937019 0.527523
vt 0.937019 0.266750
vt 0.933033 0.001993
vt 0.933033 0.262765
vt 0.914196 0.262765
vt 0.914197 0.001993
vt 0.933033 0.531508
vt 0.933033 0.792280
vt 0.914197 0.792280
vt 0.914197 0.531508
vt 0.575155 0.744932
vt 0.575155 0.763769
vt 0.571944 0.763769
vt 0.571944 0.744932
vt 0.035479 0.247453
vt 0.035479 0.287822
vt 0.366433 0.998007
vt 0.366433 0.737235
vt 0.369644 0.737235
vt 0.369644 0.998007
vt 0.470898 0.744932
vt 0.470898 0.763769
vt 0.467686 0.763769
vt 0.467686 0.744932
vt 0.485792 0.744932
vt 0.485792 0.763769
vt 0.482580 0.763769
vt 0.482580 0.744932
vt 0.035479 0.060127
vt 0.445596 0.998007
vt 0.445596 0.737235
vt 0.448807 0.737235
vt 0.448807 0.998007
vt 0.500685 0.744932
vt 0.500685 0.763769
vt 0.497474 0.763769
vt 0.497474 0.744932
vt 0.604943 0.744932
vt 0.604943 0.763769
vt 0.601732 0.763769
vt 0.601732 0.744932
vt 0.035479 0.551047
vt 0.035479 0.591416
vt 0.982663 0.262765
vt 0.982663 0.001993
vt 0.985874 0.001993
vt 0.985874 0.262765
vt 0.590049 0.744932
vt 0.590049 0.763769
vt 0.586838 0.763769
vt 0.586838 0.744932
vt 0.035479 0.323352
vt 0.035479 0.363721
vt 0.373629 0.998007
vt 0.373629 0.737235
vt 0.376841 0.737235
vt 0.376841 0.998007
vt 0.035479 0.702844
vt 0.631423 0.744932
vt 0.631423 0.763769
vt 0.628212 0.763769
vt 0.628212 0.744932
vt 0.035479 0.095656
vt 0.035479 0.136025
vt 0.035479 0.626946
vt 0.035479 0.667315
vt 0.035479 0.399250
vt 0.035479 0.439619
vt 0.456004 0.744932
vt 0.456004 0.763769
vt 0.452792 0.763769
vt 0.452792 0.744932
vt 0.049886 0.772661
vt 0.049886 0.791497
vt 0.046674 0.791497
vt 0.046674 0.772661
vt 0.993071 0.001993
vt 0.993071 0.262765
vt 0.989860 0.262765
vt 0.989860 0.001993
vt 0.530473 0.744932
vt 0.530473 0.763769
vt 0.527262 0.763769
vt 0.527262 0.744932
vt 0.416809 0.998007
vt 0.416809 0.737235
vt 0.420021 0.737235
vt 0.420021 0.998007
vt 0.545367 0.744932
vt 0.545367 0.763769
vt 0.542156 0.763769
vt 0.542156 0.744932
vt 0.654014 0.737235
vt 0.654014 0.771466
vt 0.035479 0.087667
vt 0.306139 0.087667
vt 0.597746 0.737235
vt 0.597746 0.771466
vt 0.306139 0.068116
vt 0.035479 0.068116
vt 0.523277 0.737235
vt 0.523277 0.771466
vt 0.035479 0.163565
vt 0.306139 0.163565
vt 0.538171 0.737235
vt 0.538171 0.771466
vt 0.306139 0.144014
vt 0.035479 0.144014
vt 0.612640 0.737235
vt 0.612640 0.771466
vt 0.035479 0.239464
vt 0.306139 0.239464
vt 0.042689 0.764963
vt 0.042689 0.799195
vt 0.306139 0.219913
vt 0.035479 0.219913
vt 0.057583 0.764963
vt 0.057583 0.799195
vt 0.035479 0.315362
vt 0.306139 0.315362
vt 0.508383 0.737235
vt 0.508383 0.771466
vt 0.306139 0.295811
vt 0.035479 0.295811
vt 0.012901 0.764963
vt 0.012901 0.799195
vt 0.035479 0.391261
vt 0.306139 0.391261
vt 0.463701 0.737235
vt 0.463701 0.771466
vt 0.306139 0.371710
vt 0.035479 0.371710
vt 0.493489 0.737235
vt 0.493489 0.771466
vt 0.035479 0.467159
vt 0.306139 0.467159
vt 0.027795 0.764963
vt 0.027795 0.799195
vt 0.306139 0.447608
vt 0.035479 0.447608
vt 0.639120 0.737235
vt 0.639120 0.771466
vt 0.035479 0.543058
vt 0.306139 0.543058
vt 0.478595 0.737235
vt 0.478595 0.771466
vt 0.306139 0.523507
vt 0.035479 0.523507
vt 0.553065 0.737235
vt 0.553065 0.771466
vt 0.035479 0.618957
vt 0.306139 0.618956
vt 0.567958 0.737235
vt 0.567958 0.771466
vt 0.306139 0.599406
vt 0.035479 0.599406
vt 0.582852 0.737235
vt 0.582852 0.771466
vt 0.035479 0.694855
vt 0.306139 0.694855
vt 0.668908 0.737235
vt 0.668908 0.771466
vt 0.661211 0.763769
vt 0.661211 0.744932
vt 0.306139 0.675304
vt 0.035479 0.675304
vt 0.658000 0.763769
vt 0.658000 0.744932
vn -0.9262 -0.0000 -0.3770
vn 0.9262 0.0000 0.3770
vn -1.0000 -0.0000 0.0000
vn 0.9262 -0.0000 -0.3770
vn -0.9262 -0.0000 0.3770
vn 0.0000 -0.9262 -0.3770
vn 0.0000 0.9262 -0.3770
vn 0.0000 0.9262 0.3770
vn 0.0000 -0.9262 0.3770
vn 0.0000 -1.0000 0.0000
vn 1.0000 -0.0000 0.0000
vn 0.0000 1.0000 0.0000
vn 0.0000 -0.0000 -1.0000
vn 0.0000 0.0000 1.0000
vn 0.7071 0.0000 0.7071
vn -0.7071 0.0000 0.7071
usemtl Grey
s 1
f 9/1/1 10/2/1 4/3/1 3/4/1
f 11/5/2 12/6/2 33/7/2 34/8/2
f 54/9/3 123/10/3 49/11/3 52/12/3
f 7/13/4 8/14/4 12/6/4 11/5/4
f 31/15/5 32/16/5 10/2/5 9/1/5
f 3/17/6 7/18/6 11/19/6 9/20/6
f 8/21/7 4/22/7 10/23/7 12/24/7
f 12/24/8 10/23/8 32/25/8 33/26/8
f 9/20/9 11/19/9 34/27/9 31/28/9
f 95/29/10 94/30/10 25/31/10 26/32/10
f 90/33/11 88/34/11 28/35/11 29/36/11
f 94/37/11 84/38/11 24/39/11 25/40/11
f 98/41/11 80/42/11 20/43/11 21/44/11
f 102/45/11 76/46/11 16/47/11 17/48/11
f 106/49/11 72/50/11 35/51/11 13/52/11
f 110/53/11 68/54/11 39/55/11 38/56/11
f 114/57/11 64/58/11 43/59/11 42/60/11
f 60/61/12 58/62/12 48/63/12 47/64/12
f 4/65/13 8/66/13 7/67/13 3/68/13
f 1/69/14 2/70/14 32/71/14 31/72/14
f 6/73/14 5/74/14 34/75/14 33/76/14
f 118/77/11 60/78/11 47/79/11 46/80/11
f 29/81/14 28/82/14 27/83/14 30/84/14
f 91/85/10 90/86/10 29/87/10 30/88/10
f 74/89/3 103/90/3 18/91/3 15/92/3
f 67/93/14 109/94/14 116/95/14 61/96/14
f 93/97/14 96/98/14 89/99/14 92/100/14 6/73/14 33/76/14 32/71/14 2/70/14 121/101/14 124/102/14 117/103/14 120/104/14 113/105/14 116/95/14 109/94/14 112/106/14 105/107/14 108/108/14 101/109/14 104/110/14 97/111/14 100/112/14
f 80/113/12 78/114/12 19/115/12 20/116/12
f 62/117/3 115/118/3 41/119/3 44/120/3
f 107/121/10 106/122/10 13/123/10 14/124/10
f 68/125/12 66/126/12 40/127/12 39/128/12
f 83/129/14 93/97/14 100/112/14 77/130/14
f 122/131/11 56/132/11 51/133/11 50/134/11
f 25/135/14 24/136/14 23/137/14 26/138/14
f 21/139/14 20/140/14 19/141/14 22/142/14
f 17/143/14 16/144/14 15/145/14 18/146/14
f 13/147/14 35/148/14 36/149/14 14/150/14
f 38/151/14 39/152/14 40/153/14 37/154/14
f 42/155/14 43/156/14 44/157/14 41/158/14
f 46/159/14 47/160/14 48/161/14 45/162/14
f 50/163/14 51/164/14 52/165/14 49/166/14
f 123/167/10 122/168/10 50/169/10 49/170/10
f 79/171/14 97/111/14 104/110/14 73/172/14
f 86/173/3 91/174/3 30/175/3 27/176/3
f 64/177/12 62/178/12 44/179/12 43/180/12
f 111/181/10 110/182/10 38/183/10 37/184/10
f 5/74/14 6/73/14 92/100/14 85/185/14
f 58/186/3 119/187/3 45/188/3 48/189/3
f 76/190/12 74/191/12 15/192/12 16/193/12
f 99/194/10 98/195/10 21/196/10 22/197/10
f 63/198/14 113/105/14 120/104/14 57/199/14
f 70/200/3 107/201/3 14/202/3 36/203/3
f 88/204/12 86/205/12 27/206/12 28/207/12
f 75/208/14 101/109/14 108/108/14 69/209/14
f 82/210/3 95/211/3 26/212/3 23/213/3
f 55/214/14 121/101/14 2/70/14 1/69/14
f 115/215/10 114/216/10 42/217/10 41/218/10
f 87/219/14 89/99/14 96/98/14 81/220/14
f 57/199/14 59/221/14 53/222/14 55/214/14 1/69/14 31/72/14 34/75/14 5/74/14 85/185/14 87/219/14 81/220/14 83/129/14 77/130/14 79/171/14 73/172/14 75/208/14 69/209/14 71/223/14 65/224/14 67/93/14 61/96/14 63/198/14
f 72/225/12 70/226/12 36/227/12 35/228/12
f 103/229/10 102/230/10 17/231/10 18/232/10
f 59/221/14 117/103/14 124/102/14 53/222/14
f 66/233/3 111/234/3 37/235/3 40/236/3
f 84/237/12 82/238/12 23/239/12 24/240/12
f 71/223/14 105/107/14 112/106/14 65/224/14
f 78/241/3 99/242/3 22/243/3 19/244/3
f 119/245/10 118/246/10 46/247/10 45/248/10
f 92/249/10 89/250/10 90/86/10 91/85/10
f 89/99/15 87/219/15 88/251/15 90/252/15
f 87/253/12 85/254/12 86/205/12 88/204/12
f 85/185/16 92/100/16 91/255/16 86/256/16
f 96/257/10 93/258/10 94/30/10 95/29/10
f 93/97/15 83/129/15 84/259/15 94/260/15
f 83/261/12 81/262/12 82/238/12 84/237/12
f 81/220/16 96/98/16 95/263/16 82/264/16
f 100/265/10 97/266/10 98/195/10 99/194/10
f 97/111/15 79/171/15 80/267/15 98/268/15
f 79/269/12 77/270/12 78/114/12 80/113/12
f 77/130/16 100/112/16 99/271/16 78/272/16
f 104/273/10 101/274/10 102/230/10 103/229/10
f 101/109/15 75/208/15 76/275/15 102/276/15
f 75/277/12 73/278/12 74/191/12 76/190/12
f 73/172/16 104/110/16 103/279/16 74/280/16
f 108/281/10 105/282/10 106/122/10 107/121/10
f 105/107/15 71/223/15 72/283/15 106/284/15
f 71/285/12 69/286/12 70/226/12 72/225/12
f 69/209/16 108/108/16 107/287/16 70/288/16
f 112/289/10 109/290/10 110/182/10 111/181/10
f 109/94/15 67/93/15 68/291/15 110/292/15
f 67/293/12 65/294/12 66/126/12 68/125/12
f 65/224/16 112/106/16 111/295/16 66/296/16
f 116/297/10 113/298/10 114/216/10 115/215/10
f 113/105/15 63/198/15 64/299/15 114/300/15
f 63/301/12 61/302/12 62/178/12 64/177/12
f 61/96/16 116/95/16 115/303/16 62/304/16
f 120/305/10 117/306/10 118/246/10 119/245/10
f 117/103/15 59/221/15 60/307/15 118/308/15
f 59/309/12 57/310/12 58/62/12 60/61/12
f 57/199/16 120/104/16 119/311/16 58/312/16
f 124/313/10 121/314/10 122/168/10 123/167/10
f 121/101/15 55/214/15 56/315/15 122/316/15
f 55/317/12 53/318/12 54/319/12 56/320/12
f 53/222/16 124/102/16 123/321/16 54/322/16
f 56/320/12 54/319/12 52/323/12 51/324/12
