# Blender v3.2.0 OBJ File: ''
# www.blender.org
mtllib Plaque.mtl
o Sign12
v -0.962486 0.981817 -0.007679
v -1.122079 0.981817 -0.007681
v 1.211793 0.981817 -0.007679
v 1.052199 0.981817 -0.007681
v 1.449857 0.008535 -0.020472
v -1.471973 -0.014630 -0.020472
v -1.471869 0.062504 -0.020472
v -1.412471 0.068699 -0.020472
v -1.471869 0.069784 -0.020472
v -1.483062 0.257210 -0.020472
v 1.475394 0.252958 -0.020472
v 1.477159 0.235211 -0.020472
v 1.454865 0.012691 -0.020472
v -1.465319 0.589433 0.020333
v -1.473380 0.793866 0.020333
v -1.473380 0.793866 -0.020472
v -1.465319 0.589433 -0.020472
v -1.471869 0.069784 0.020333
v -1.483062 0.252896 0.020333
v 1.499005 0.532108 0.020333
v 1.499005 0.532108 -0.020472
v 1.497990 0.786973 -0.020472
v 1.497990 0.786973 0.020333
v 1.451291 0.793866 0.020333
v 1.451291 0.789613 -0.020472
v 1.491632 0.523403 0.020333
v -1.476788 0.526340 0.020333
v -1.476788 0.526340 -0.020472
v 1.491632 0.523403 -0.020472
v 1.478225 0.255396 -0.020472
v -1.484902 0.256176 -0.020472
v -1.475848 0.316878 -0.020472
v -1.475848 0.521311 -0.020472
v 1.451291 0.517058 -0.020472
v 1.497990 0.514418 -0.020472
v 1.488312 0.355503 -0.020472
v 1.380976 0.323519 -0.020472
v 1.485981 0.348003 -0.020472
v 1.482717 0.259552 -0.020472
v 1.454865 0.012691 0.020333
v 1.477159 0.235211 0.020333
v -1.484902 0.256176 0.020333
v -1.475848 0.316878 0.020333
v 1.475394 0.252896 0.020333
v 1.482717 0.259552 0.020333
v 1.478225 0.255396 0.020333
v 1.449857 0.008535 0.020333
v -1.471973 -0.014630 0.020333
v -1.471869 0.062504 0.020333
v -1.412471 0.068699 0.020333
v -1.475848 0.521311 0.020333
v 1.486220 0.348003 0.020333
v 1.381238 0.323519 0.020333
v 1.488466 0.355503 0.020333
v 1.497990 0.514418 0.020333
v 1.451291 0.521311 0.020333
v -1.463452 1.005798 0.020333
v -1.471869 1.064820 0.020333
v -1.471869 1.064820 -0.020472
v -1.463452 1.005798 -0.020472
v 1.500094 0.803061 0.020333
v 1.500094 0.803061 -0.020472
v 1.487859 0.905308 -0.020472
v 1.487778 0.903937 0.020333
v 1.451291 1.064820 0.020333
v 1.497990 1.057927 0.020333
v 1.497990 1.057927 -0.020472
v 1.451291 1.060567 -0.020472
v 1.478225 0.798905 0.020333
v -1.475276 0.797293 0.020333
v -1.475276 0.797293 -0.020472
v 1.478225 0.798905 -0.020472
v 1.398617 0.921453 0.020333
v 1.491938 0.910752 0.020333
v 1.491981 0.911473 -0.020472
v 1.398724 0.923236 -0.020472
v -1.489682 1.195380 0.020333
v -1.471869 1.337700 0.020333
v -1.471869 1.337700 -0.020472
v -1.489682 1.195380 -0.020472
v 1.500711 1.075941 0.020333
v 1.500711 1.075941 -0.020472
v 1.497990 1.330807 -0.020472
v 1.497990 1.330807 0.020333
v 1.238144 1.346653 0.020333
v 1.238144 1.342401 -0.020472
v 1.478225 1.071785 0.020333
v -1.475276 1.070173 0.020333
v -1.475276 1.070173 -0.020472
v 1.478225 1.071785 -0.020472
v 1.466094 0.610853 0.020333
v 1.465832 0.610853 -0.020472
vt 0.875000 0.875000
vt 0.875000 0.875000
vt 0.875000 0.875000
vt 0.875000 0.875000
vt 0.875000 0.875000
vt 0.875000 0.875000
vt 0.875000 0.875000
vt 0.875000 0.875000
vt 0.875000 0.875000
vt 0.875000 0.875000
vt 0.875000 0.875000
vt 0.875000 0.875000
vt 0.875000 0.875000
vt 0.875000 0.875000
vt 0.875000 0.875000
vt 0.875000 0.875000
vt 0.875000 0.875000
vt 0.875000 0.875000
vt 0.875000 0.875000
vt 0.875000 0.875000
vt 0.875000 0.875000
vt 0.875000 0.875000
vt 0.875000 0.875000
vt 0.875000 0.875000
vt 0.875000 0.875000
vt 0.875000 0.875000
vt 0.875000 0.875000
vt 0.875000 0.875000
vt 0.875000 0.875000
vt 0.875000 0.875000
vt 0.875000 0.875000
vt 0.875000 0.875000
vt 0.875000 0.875000
vt 0.875000 0.875000
vt 0.875000 0.875000
vt 0.875000 0.875000
vt 0.875000 0.875000
vt 0.875000 0.875000
vt 0.875000 0.875000
vt 0.875000 0.875000
vt 0.875000 0.875000
vt 0.875000 0.875000
vt 0.875000 0.875000
vt 0.875000 0.875000
vt 0.875000 0.875000
vt 0.875000 0.875000
vt 0.875000 0.875000
vt 0.875000 0.875000
vt 0.875000 0.875000
vt 0.875000 0.875000
vt 0.875000 0.875000
vt 0.875000 0.875000
vt 0.875000 0.875000
vt 0.875000 0.875000
vt 0.875000 0.875000
vt 0.875000 0.875000
vt 0.875000 0.875000
vt 0.875000 0.875000
vt 0.875000 0.875000
vt 0.875000 0.875000
vt 0.875000 0.875000
vt 0.875000 0.875000
vt 0.875000 0.875000
vt 0.875000 0.875000
vt 0.875000 0.875000
vt 0.875000 0.875000
vt 0.875000 0.875000
vt 0.875000 0.875000
vt 0.875000 0.875000
vt 0.875000 0.875000
vt 0.875000 0.875000
vt 0.875000 0.875000
vt 0.875000 0.875000
vt 0.875000 0.875000
vt 0.875000 0.875000
vt 0.875000 0.875000
vt 0.875000 0.875000
vt 0.875000 0.875000
vt 0.875000 0.875000
vt 0.875000 0.875000
vt 0.875000 0.875000
vt 0.875000 0.875000
vt 0.875000 0.875000
vt 0.875000 0.875000
vt 0.875000 0.875000
vt 0.875000 0.875000
vn 0.0000 0.0000 -1.0000
vn -0.9992 -0.0394 0.0000
vn -0.9982 -0.0603 -0.0032
vn 1.0000 0.0040 0.0000
vn 0.1014 0.9935 -0.0518
vn -0.0010 -1.0000 0.0000
vn 0.0000 -0.0000 1.0000
vn 0.7631 -0.6463 0.0000
vn -0.9839 0.1788 0.0000
vn 0.9950 -0.0997 0.0000
vn -0.9891 0.1475 0.0000
vn 0.0007 0.9986 0.0535
vn 0.6791 -0.7340 0.0000
vn 0.0079 -1.0000 0.0000
vn -0.1037 0.9946 0.0000
vn -1.0000 -0.0000 0.0000
vn 0.9993 -0.0382 -0.0029
vn -0.0003 -1.0000 0.0000
vn 0.0007 0.9986 -0.0520
vn -1.0000 0.0013 0.0000
vn 0.9951 0.0991 0.0001
vn -0.0183 -0.9998 0.0000
vn 0.6386 -0.7695 0.0000
vn 0.2857 -0.9583 -0.0015
vn 0.9982 -0.0603 -0.0019
vn -0.2271 0.9739 0.0014
vn -0.9900 -0.1412 0.0000
vn 0.9928 0.1200 0.0030
vn 0.0005 -1.0000 0.0000
vn 0.1867 -0.9824 0.0000
vn -0.9984 0.0566 0.0000
vn -0.9923 0.1242 0.0000
vn 0.9999 0.0107 0.0000
vn 0.0527 0.9973 -0.0520
vn 0.1818 -0.9833 0.0000
vn -0.9934 -0.1143 0.0000
vn -0.0025 0.9986 -0.0520
vn 0.9992 -0.0410 0.0002
vn -0.1195 -0.9924 -0.0307
vn 0.1948 0.9801 0.0383
usemtl Light_Wood
s 1
f 5/1/1 6/2/1 7/3/1 8/4/1 9/5/1 10/6/1 11/7/1 12/8/1 13/9/1
f 14/10/2 15/11/2 16/12/2 17/13/2
f 9/5/3 18/14/3 19/15/3 10/6/3
f 20/16/4 21/17/4 22/18/4 23/19/4
f 24/20/5 23/19/5 22/18/5 25/21/5
f 26/22/6 27/23/6 28/24/6 29/25/6
f 26/22/7 20/16/7 23/19/7 24/20/7 15/11/7 14/10/7 27/23/7
f 30/26/1 31/27/1 32/28/1 33/29/1 34/30/1 35/31/1 36/32/1 37/33/1 38/34/1 39/35/1
f 29/25/1 28/24/1 17/13/1 16/12/1 25/21/1 22/18/1 21/17/1
f 20/16/8 26/22/8 29/25/8 21/17/8
f 17/13/9 28/24/9 27/23/9 14/10/9
f 40/36/10 13/9/10 12/8/10 41/37/10
f 32/28/11 31/27/11 42/38/11 43/39/11
f 44/40/12 11/7/12 10/6/12 19/15/12
f 45/41/13 46/42/13 30/26/13 39/35/13
f 47/43/14 48/44/14 6/2/14 5/1/14
f 49/45/15 50/46/15 8/4/15 7/3/15
f 43/39/16 51/47/16 33/29/16 32/28/16
f 45/41/17 39/35/17 38/34/17 52/48/17
f 46/42/7 45/41/7 52/48/7 53/49/7 54/50/7 55/51/7 56/52/7 51/47/7 43/39/7 42/38/7
f 46/42/18 42/38/18 31/27/18 30/26/18
f 56/52/5 55/51/5 35/31/5 34/30/5
f 56/52/19 34/30/19 33/29/19 51/47/19
f 7/3/20 6/2/20 48/44/20 49/45/20
f 47/43/7 40/36/7 41/37/7 44/40/7 19/15/7 18/14/7 50/46/7 49/45/7 48/44/7
f 44/40/21 41/37/21 12/8/21 11/7/21
f 8/4/22 50/46/22 18/14/22 9/5/22
f 40/36/23 47/43/23 5/1/23 13/9/23
f 24/20/19 25/21/19 16/12/19 15/11/19
f 53/49/24 37/33/24 36/32/24 54/50/24
f 54/50/25 36/32/25 35/31/25 55/51/25
f 52/48/26 38/34/26 37/33/26 53/49/26
f 57/53/27 58/54/27 59/55/27 60/56/27
f 61/57/28 62/58/28 63/59/28 64/60/28
f 65/61/5 66/62/5 67/63/5 68/64/5
f 69/65/29 70/66/29 71/67/29 72/68/29
f 69/65/7 61/57/7 64/60/7 73/69/7 74/70/7 66/62/7 65/61/7 58/54/7 57/53/7 70/66/7
f 72/68/1 71/67/1 60/56/1 59/55/1 68/64/1 67/63/1 75/71/1 76/72/1 63/59/1 62/58/1
f 61/57/30 69/65/30 72/68/30 62/58/30
f 60/56/31 71/67/31 70/66/31 57/53/31
f 65/61/19 68/64/19 59/55/19 58/54/19
f 77/73/32 78/74/32 79/75/32 80/76/32
f 81/77/33 82/78/33 83/79/33 84/80/33
f 85/81/34 84/80/34 83/79/34 86/82/34
f 87/83/29 88/84/29 89/85/29 90/86/29
f 87/83/7 81/77/7 84/80/7 85/81/7 78/74/7 77/73/7 88/84/7
f 90/86/1 89/85/1 80/76/1 79/75/1 86/82/1 83/79/1 82/78/1
f 81/77/35 87/83/35 90/86/35 82/78/35
f 80/76/36 89/85/36 88/84/36 77/73/36
f 85/81/37 86/82/37 79/75/37 78/74/37
f 74/70/38 75/71/38 67/63/38 66/62/38
f 73/69/39 76/72/39 75/71/39 74/70/39
f 64/60/40 63/59/40 76/72/40 73/69/40
l 1 2
l 3 4
l 91 92
