# Made in Blockbench 4.10.4
mtllib table1.mtl

o legs
v 0.46875 0.375 0.46875
v 0.46875 0.375 0.40625
v 0.46875 0 0.46875
v 0.46875 0 0.40625
v 0.40625 0.375 0.46875
v 0.40625 0.375 0.40625
v 0.40625 0 0.46875
v 0.40625 0 0.40625
v -0.40625 0.375 0.46875
v -0.40625 0.375 0.40625
v -0.40625 0 0.46875
v -0.40625 0 0.40625
v -0.46875 0.375 0.46875
v -0.46875 0.375 0.40625
v -0.46875 0 0.46875
v -0.46875 0 0.40625
v 0.46875 0.375 -0.40625
v 0.46875 0.375 -0.46875
v 0.46875 0 -0.40625
v 0.46875 0 -0.46875
v 0.40625 0.375 -0.40625
v 0.40625 0.375 -0.46875
v 0.40625 0 -0.40625
v 0.40625 0 -0.46875
v -0.40625 0.375 -0.40625
v -0.40625 0.375 -0.46875
v -0.40625 0 -0.40625
v -0.40625 0 -0.46875
v -0.46875 0.375 -0.40625
v -0.46875 0.375 -0.46875
v -0.46875 0 -0.40625
v -0.46875 0 -0.46875
v 0.5 0.4375 0.5
v 0.5 0.4375 -0.5
v 0.5 0.375 0.5
v 0.5 0.375 -0.5
v -0.5 0.4375 0.5
v -0.5 0.4375 -0.5
v -0.5 0.375 0.5
v -0.5 0.375 -0.5
vt 0.5198863636363636 0.7689393939393939
vt 0.4910037878787879 0.7689393939393939
vt 0.4910037878787879 0.5956439393939393
vt 0.5198863636363636 0.5956439393939393
vt 0.5198863636363636 0.39346590909090906
vt 0.5198863636363636 0.5667613636363635
vt 0.4910037878787879 0.5667613636363635
vt 0.4910037878787879 0.39346590909090906
vt 0.7798295454545455 0.5378787878787878
vt 0.8087121212121213 0.5378787878787878
vt 0.8087121212121213 0.5667613636363635
vt 0.7798295454545455 0.5667613636363635
vt 0.8087121212121213 0.48011363636363635
vt 0.8087121212121213 0.5089962121212122
vt 0.7798295454545455 0.5089962121212122
vt 0.7798295454545455 0.48011363636363635
vt 0.5776515151515151 0.5956439393939393
vt 0.5776515151515151 0.7689393939393939
vt 0.5487689393939394 0.7689393939393939
vt 0.5487689393939394 0.5956439393939393
vt 0.5776515151515151 0.5667613636363635
vt 0.5487689393939394 0.5667613636363635
vt 0.5487689393939394 0.39346590909090906
vt 0.5776515151515151 0.39346590909090906
vt 0.6354166666666667 0.7689393939393939
vt 0.6065340909090909 0.7689393939393939
vt 0.6065340909090909 0.5956439393939393
vt 0.6354166666666667 0.5956439393939393
vt 0.6354166666666667 0.39346590909090906
vt 0.6354166666666667 0.5667613636363635
vt 0.6065340909090909 0.5667613636363635
vt 0.6065340909090909 0.39346590909090906
vt 0.7798295454545455 0.42234848484848486
vt 0.8087121212121213 0.42234848484848486
vt 0.8087121212121213 0.45123106060606055
vt 0.7798295454545455 0.45123106060606055
vt 0.8087121212121213 0.36458333333333326
vt 0.8087121212121213 0.39346590909090906
vt 0.7798295454545455 0.39346590909090906
vt 0.7798295454545455 0.36458333333333326
vt 0.5198863636363636 0.19128787878787867
vt 0.5198863636363636 0.36458333333333326
vt 0.4910037878787879 0.36458333333333326
vt 0.4910037878787879 0.19128787878787867
vt 0.5776515151515151 0.36458333333333326
vt 0.5487689393939394 0.36458333333333326
vt 0.5487689393939394 0.19128787878787867
vt 0.5776515151515151 0.19128787878787867
vt 0.6354166666666667 0.36458333333333326
vt 0.6065340909090909 0.36458333333333326
vt 0.6065340909090909 0.19128787878787867
vt 0.6354166666666667 0.19128787878787867
vt 0.6931818181818182 0.5956439393939393
vt 0.6931818181818182 0.7689393939393939
vt 0.6642992424242424 0.7689393939393939
vt 0.6642992424242424 0.5956439393939393
vt 0.7798295454545455 0.30681818181818177
vt 0.8087121212121213 0.30681818181818177
vt 0.8087121212121213 0.33570075757575757
vt 0.7798295454545455 0.33570075757575757
vt 0.8087121212121213 0.24905303030303028
vt 0.8087121212121213 0.27793560606060597
vt 0.7798295454545455 0.27793560606060597
vt 0.7798295454545455 0.24905303030303028
vt 0.6931818181818182 0.39346590909090906
vt 0.6931818181818182 0.5667613636363635
vt 0.6642992424242424 0.5667613636363635
vt 0.6642992424242424 0.39346590909090906
vt 0.6931818181818182 0.36458333333333326
vt 0.6642992424242424 0.36458333333333326
vt 0.6642992424242424 0.19128787878787867
vt 0.6931818181818182 0.19128787878787867
vt 0.7509469696969697 0.7689393939393939
vt 0.722064393939394 0.7689393939393939
vt 0.722064393939394 0.5956439393939393
vt 0.7509469696969697 0.5956439393939393
vt 0.7509469696969697 0.39346590909090906
vt 0.7509469696969697 0.5667613636363635
vt 0.722064393939394 0.5667613636363635
vt 0.722064393939394 0.39346590909090906
vt 0.7798295454545455 0.19128787878787867
vt 0.8087121212121213 0.19128787878787867
vt 0.8087121212121213 0.22017045454545447
vt 0.7798295454545455 0.22017045454545447
vt 0.8664772727272728 0.7400568181818181
vt 0.8664772727272728 0.7689393939393939
vt 0.837594696969697 0.7689393939393939
vt 0.837594696969697 0.7400568181818181
vt 0.7509469696969697 0.19128787878787867
vt 0.7509469696969697 0.36458333333333326
vt 0.722064393939394 0.36458333333333326
vt 0.722064393939394 0.19128787878787867
vt 0.8087121212121213 0.7689393939393939
vt 0.7798295454545455 0.7689393939393939
vt 0.7798295454545455 0.5956439393939393
vt 0.8087121212121213 0.5956439393939393
vt 0.3437500000000001 0.9375
vt 0.3191287878787879 0.9375
vt 0.3191287878787879 0.7367424242424242
vt 0.3437500000000001 0.7367424242424242
vt 0.4296875000000001 0.6086647727272727
vt 0.4296875000000001 0.7703598484848485
vt 0.4050662878787879 0.7703598484848485
vt 0.4050662878787879 0.6086647727272727
vt 0.46212121212121215 0.5378787878787878
vt 0.46212121212121215 1
vt 0 1
vt 0 0.5378787878787878
vt 0.4609375000000001 0.8555871212121212
vt 0.4609375000000001 0.884469696969697
vt -0.0011837121212120993 0.884469696969697
vt -0.0011837121212120993 0.8555871212121212
vt 0.4687500000000001 0.8267045454545454
vt 0.006628787878787901 0.8267045454545454
vt 0.006628787878787901 0.7978219696969697
vt 0.4687500000000001 0.7978219696969697
vt 0 0.04687499999999989
vt 0.46212121212121215 0.04687499999999989
vt 0.46212121212121215 0.5089962121212122
vt 0 0.5089962121212122
vn 1 0 0
vn -1 0 0
vn 0 1 0
vn 0 -1 0
vn 0 0 1
vn 0 0 -1
vn 1 0 0
vn -1 0 0
vn 0 1 0
vn 0 -1 0
vn 0 0 1
vn 0 0 -1
vn 1 0 0
vn -1 0 0
vn 0 1 0
vn 0 -1 0
vn 0 0 1
vn 0 0 -1
vn 1 0 0
vn -1 0 0
vn 0 1 0
vn 0 -1 0
vn 0 0 1
vn 0 0 -1
vn 1 0 0
vn -1 0 0
vn 0 -1 0
vn 0 0 1
vn 0 0 -1
vn 0 1 0
usemtl m_eb2f415f-5f0d-ed80-e0d3-2bb17104104a
f 2/1/1 1/2/1 3/3/1 4/4/1
f 7/5/2 5/6/2 6/7/2 8/8/2
f 5/9/3 1/10/3 2/11/3 6/12/3
f 4/13/4 3/14/4 7/15/4 8/16/4
f 3/17/5 1/18/5 5/19/5 7/20/5
f 6/21/6 2/22/6 4/23/6 8/24/6
f 10/25/7 9/26/7 11/27/7 12/28/7
f 15/29/8 13/30/8 14/31/8 16/32/8
f 13/33/9 9/34/9 10/35/9 14/36/9
f 12/37/10 11/38/10 15/39/10 16/40/10
f 11/41/11 9/42/11 13/43/11 15/44/11
f 14/45/12 10/46/12 12/47/12 16/48/12
f 18/49/13 17/50/13 19/51/13 20/52/13
f 23/53/14 21/54/14 22/55/14 24/56/14
f 21/57/15 17/58/15 18/59/15 22/60/15
f 20/61/16 19/62/16 23/63/16 24/64/16
f 19/65/17 17/66/17 21/67/17 23/68/17
f 22/69/18 18/70/18 20/71/18 24/72/18
f 26/73/19 25/74/19 27/75/19 28/76/19
f 31/77/20 29/78/20 30/79/20 32/80/20
f 29/81/21 25/82/21 26/83/21 30/84/21
f 28/85/22 27/86/22 31/87/22 32/88/22
f 27/89/23 25/90/23 29/91/23 31/92/23
f 30/93/24 26/94/24 28/95/24 32/96/24
f 34/97/25 33/98/25 35/99/25 36/100/25
f 39/101/26 37/102/26 38/103/26 40/104/26
f 36/105/27 35/106/27 39/107/27 40/108/27
f 35/109/28 33/110/28 37/111/28 39/112/28
f 38/113/29 34/114/29 36/115/29 40/116/29
f 37/117/30 33/118/30 34/119/30 38/120/30