# File produced by Open Asset Import Library (http://www.assimp.sf.net)
# (assimp v3.1.202510665)

mtllib A4_Lined_Paper_OBJ.mtl

# vertex positions
v -10.500000 -0.050000 14.850000
v 10.500000 -0.050000 14.850000
v 10.500000 0.050000 14.850000
v -10.500000 0.050000 14.850000
v 10.500000 0.050000 -14.850000
v -10.500000 0.050000 -14.850000
v 10.500000 -0.050000 -14.850000
v -10.500000 -0.050000 -14.850000

# UV coordinates
vt 1.000000 1.000000
vt 0.000000 1.000000
vt 0.000000 0.000000
vt 1.000000 0.000000

# vertex normals
vn -0.004762 -0.999983 0.003367
vn 0.004762 -0.999983 0.003367
vn 0.004762 0.999983 0.003367
vn -0.004762 0.999983 0.003367
vn 0.004762 0.999983 -0.003367
vn -0.004762 0.999983 -0.003367
vn 0.004762 -0.999983 -0.003367
vn -0.004762 -0.999983 -0.003367

# Mesh
g A4_Lined_Paper
usemtl lambert2SG
f 2/2/2 3/2/3 4/1/4 1/1/1
f 3/2/3 5/3/5 6/4/6 4/1/4
f 5/3/5 7/3/7 8/4/8 6/4/6
f 7/4/7 2/1/2 1/2/1 8/3/8
f 5/3/5 3/2/3 2/2/2 7/3/7
f 4/1/4 6/4/6 8/4/8 1/1/1
